<?xml version="1.0" standalone="yes"?>

<svg version="1.1" viewBox="0.0 0.0 960.0 720.0" fill="none" stroke="none" stroke-linecap="square" stroke-miterlimit="10" xmlns="http://www.w3.org/2000/svg" xmlns:xlink="http://www.w3.org/1999/xlink"><clipPath id="p.0"><path d="m0 0l960.0 0l0 720.0l-960.0 0l0 -720.0z" clip-rule="nonzero"></path></clipPath><g clip-path="url(#p.0)"><path fill="#000000" fill-opacity="0.0" d="m0 0l960.0 0l0 720.0l-960.0 0z" fill-rule="nonzero"></path><path fill="#cfe2f3" d="m151.63518 630.4488l278.2047 0l0 69.25989l-278.2047 0z" fill-rule="nonzero"></path><path stroke="#000000" stroke-width="1.0" stroke-linejoin="round" stroke-linecap="butt" d="m151.63518 630.4488l278.2047 0l0 69.25989l-278.2047 0z" fill-rule="nonzero"></path><path fill="#000000" d="m266.55002 667.9206q1.03125 -2.015625 1.25 -6.09375l-2.515625 0q0.21875 4.078125 1.265625 6.09375zm2.734375 -6.09375q-0.140625 4.609375 -1.78125 7.421875q1.1875 1.484375 3.34375 2.59375l-0.96875 1.640625q-2.375 -1.5625 -3.328125 -2.96875q-1.71875 1.9375 -5.28125 3.34375l-0.734375 -1.484375q3.859375 -1.5625 5.125 -3.203125q-1.265625 -2.4375 -1.421875 -4.890625q-0.4375 1.109375 -0.890625 1.703125l-1.25 -0.96875q2.21875 -3.265625 2.671875 -8.078125l1.546875 0.359375q0.453125 0.296875 -0.21875 0.453125q-0.21875 1.328125 -0.59375 2.671875l5.046875 0l0 1.40625l-1.265625 0zm-6.890625 -3.5625q-0.453125 1.109375 -1.046875 1.859375l-1.1875 -0.671875q0.59375 -0.96875 1.109375 -2.21875l1.34375 0.65625q0.296875 0.296875 -0.21875 0.375zm-4.75 10.46875q1.03125 0.296875 1.84375 0.671875q0.59375 -0.671875 0.96875 -2.015625l-2.15625 0q-0.296875 0.671875 -0.65625 1.34375zm-1.046875 1.859375l-1.1874847 -0.671875q0.74998474 -1.109375 1.4843597 -2.53125l-2.8124847 0l0 -1.1875l3.2656097 0q0.4375 -0.953125 0.65625 -1.625l1.421875 0.375q0.296875 0.296875 -0.234375 0.359375l-0.4375 0.890625l4.234375 0l0 1.1875l-1.125 0q-0.359375 1.484375 -1.109375 2.53125q0.671875 0.296875 1.40625 0.734375l-0.65625 1.1875q-0.828125 -0.515625 -1.484375 -0.8125q-1.9375 1.9375 -5.2031097 2.375l-0.515625 -1.328125q2.8906097 -0.296875 4.4531097 -1.640625q-0.8125 -0.375 -1.640625 -0.671875l-0.515625 0.828125zm1.484375 -13.953125l1.1875 0q0.59375 0.0625 0.078125 0.4375l0 3.1875l3.78125 0l0 1.1875l-3.109375 0q0.8125 0.96875 2.515625 1.859375l-0.8125 1.265625q-1.265625 -0.75 -2.375 -2.078125l0 1.78125l-1.265625 0l0 -1.40625q-1.1875 1.484375 -3.2656097 2.671875l-0.96875 -1.1875q2.3124847 -1.1875 3.7968597 -2.90625l-3.4218597 0l0 -1.1875l3.8593597 0l0 -3.625zm-2.078125 3.40625q-0.51560974 -1.109375 -1.3281097 -1.921875l1.1875 -0.75q0.89060974 0.890625 1.3281097 1.859375l-1.1875 0.8125zm23.15625 -2.96875l9.71875 0l0 4.671875l-3.328125 0l0 2.15625l4.15625 0l0 1.1875l-4.15625 0l0 2.234375l2.890625 0l0 6.15625l-1.265625 0l0 -0.8125l-4.453125 0l0 1.03125l-1.265625 0l0 -6.375l2.609375 0l0 -2.234375l-3.640625 0l0 1.1875q0 4.96875 -2.15625 7.203125l-1.109375 -1.109375q2.0 -2.015625 2.0 -6.390625l0 -8.90625zm8.015625 11.4375l-4.453125 0l0 2.96875l4.453125 0l0 -2.96875zm-3.109375 -4.609375l0 -2.15625l-3.640625 0l0 2.15625l3.640625 0zm-3.640625 -3.34375l6.96875 0l0 -2.296875l-6.96875 0l0 2.296875zm-1.9375 5.578125l-1.921875 0.65625l0 5.796875q0 1.1875 -1.1875 1.1875l-1.484375 0l-0.21875 -1.40625l1.109375 0q0.296875 0 0.296875 -0.296875l0 -4.828125l-1.5625 0.515625q-0.078125 0.515625 -0.375 0.21875l-0.515625 -1.78125l2.453125 -0.515625l0 -3.859375l-2.078125 0l0 -1.40625l2.078125 0l0 -3.859375l1.40625 0q0.59375 0.078125 0.078125 0.4375l0 3.421875l1.921875 0l0 1.40625l-1.921875 0l0 3.5625l1.78125 -0.515625l0.140625 1.265625zm28.953125 -7.71875q0.140625 0.296875 -0.59375 0.0625q-5.125 0.671875 -13.875 0.96875l-0.296875 -1.484375q8.078125 -0.21875 13.71875 -1.109375l1.046875 1.5625zm-6.609375 6.75l7.125 0l0 1.40625l-6.90625 0q2.015625 2.59375 7.359375 4.15625l-0.453125 1.9375q-4.828125 -1.5625 -7.125 -4.15625l0 5.125l-1.484375 0l0 -4.90625q-2.59375 2.890625 -6.90625 4.15625l-0.65625 -1.78125q5.109375 -1.34375 7.484375 -4.53125l-6.96875 0l0 -1.40625l7.046875 0l0 -1.484375l1.40625 0q0.59375 0.078125 0.078125 0.4375l0 1.046875zm2.75 -1.78125q0.8125 -1.9375 1.1875 -3.9375l1.78125 0.296875q0.515625 0.078125 -0.078125 0.453125q-0.4375 1.625 -1.265625 3.484375l-1.625 -0.296875zm-4.234375 -0.21875q-0.296875 -1.78125 -0.734375 -3.125l1.78125 -0.296875q0.515625 1.265625 0.734375 3.046875l-1.78125 0.375zm-3.859375 -3.125q1.046875 2.0 0.96875 3.34375l-1.78125 0.21875q-0.078125 -1.328125 -0.890625 -3.1875l1.703125 -0.375zm20.640625 -2.671875q-0.234375 0.671875 -0.828125 1.265625l3.640625 0q0.515625 -1.1875 0.75 -1.9375l1.484375 0.296875q0.296875 0.296875 -0.234375 0.375l-0.59375 1.265625l5.9375 0l0 1.1875l-6.15625 0l0 0.96875l4.96875 0l0 1.1875l-4.96875 0l0 0.953125l4.96875 0l0 1.1875l-4.96875 0l0 1.125l6.6875 0l0 1.1875l-6.6875 0l0 1.109375l7.28125 0l0 1.40625l-5.796875 0q2.375 1.703125 6.09375 2.53125l-0.53125 1.484375q-4.15625 -1.046875 -7.046875 -3.71875l0 4.390625l-1.484375 0l0 -4.3125q-2.296875 2.375 -7.34375 3.859375l-0.515625 -1.40625q3.78125 -0.96875 6.375 -2.828125l-5.9375 0l0 -1.40625l7.421875 0l0 -1.109375l-2.59375 0l-2.59375 0l0 -5.28125q-0.671875 0.75 -1.640625 1.484375l-0.8125 -1.03125q2.8125 -2.296875 3.9375 -5.046875l1.40625 0.4375q0.296875 0.296875 -0.21875 0.375zm-1.421875 6.75l0 1.125l3.9375 0l0 -1.125l-3.9375 0zm0 -2.140625l0 0.953125l3.9375 0l0 -0.953125l-3.9375 0zm0 -2.15625l0 0.96875l3.9375 0l0 -0.96875l-3.9375 0z" fill-rule="nonzero"></path><path fill="#cfe2f3" d="m148.6483 535.40155l667.46454 0l0 69.25989l-667.46454 0z" fill-rule="nonzero"></path><path stroke="#000000" stroke-width="1.0" stroke-linejoin="round" stroke-linecap="butt" d="m148.6483 535.40155l667.46454 0l0 69.25989l-667.46454 0z" fill-rule="nonzero"></path><path fill="#000000" d="m447.64618 566.56085q-0.21875 0.890625 -0.375 2.453125q-0.140625 1.546875 -0.4375 3.328125l3.484375 0q1.328125 0 2.8125 -0.0625l0 1.40625q-1.546875 -0.078125 -2.890625 -0.078125l-3.78125 0q-0.671875 1.484375 -2.015625 2.609375q-1.328125 1.109375 -3.109375 1.734375q-1.78125 0.640625 -3.1875 1.0q-0.296875 -0.890625 -1.265625 -1.40625q2.15625 -0.21875 4.59375 -1.21875q2.453125 -1.015625 3.421875 -2.71875l-5.265625 0q-1.34375 0 -2.96875 0.078125l0 -1.40625q1.703125 0.0625 2.96875 0.0625l5.78125 0q0.234375 -1.25 0.34375 -2.703125q0.109375 -1.453125 0.03125 -3.53125q0.890625 0.296875 1.859375 0.453125zm-2.59375 -5.203125q0.59375 1.1875 1.03125 2.609375l6.453125 0q-0.0625 0.8125 -0.0625 1.625q0 0.75 0.0625 1.640625l-1.703125 0l0 -2.078125l-11.796875 0l0 2.21875l-1.640625 0q0.078125 -0.890625 0.078125 -1.703125q0 -0.890625 -0.078125 -1.703125l6.828125 0q-0.21875 -0.890625 -0.8125 -2.078125q0.59375 -0.234375 1.640625 -0.53125zm2.21875 13.140625q1.640625 0.890625 3.125 1.671875q1.484375 0.78125 2.59375 1.453125q-0.515625 0.59375 -1.109375 1.265625q-1.34375 -0.96875 -2.90625 -1.828125q-1.546875 -0.859375 -2.671875 -1.296875q0.59375 -0.75 0.96875 -1.265625zm-8.390625 -5.71875q1.265625 0.59375 3.5 2.078125q-0.296875 0.453125 -0.890625 1.1875q-2.078125 -1.546875 -3.34375 -2.078125q0.4375 -0.4375 0.734375 -1.1875zm5.875 -0.21875q-0.53125 0.59375 -0.890625 1.1875q-2.375 -1.703125 -3.5 -2.078125q0.375 -0.515625 0.828125 -1.1875l3.5625 2.078125zm16.796875 -5.1875q-0.078125 2.671875 -0.078125 6.453125q0 3.78125 0.078125 5.9375l-1.5625 0l0 -1.40625l-2.96875 0l0 2.4375l-1.5625 0q0.078125 -3.40625 0.078125 -6.828125q0 -3.484375 -0.078125 -6.59375l6.09375 0zm6.96875 2.21875q0 -2.21875 -0.0625 -4.15625l1.625 0q-0.078125 1.9375 -0.078125 4.15625q1.125 0 2.375 -0.078125l0 1.421875q-1.25 -0.078125 -2.375 -0.078125l0 9.9375q0 1.125 -0.890625 1.421875q-0.890625 0.296875 -2.296875 0.4375q0 -0.890625 -0.8125 -1.703125q1.40625 0.15625 1.953125 0.078125q0.5625 -0.078125 0.5625 -0.96875l0 -9.203125q-3.703125 0 -6.234375 0.078125l0 -1.421875q2.375 0.078125 6.234375 0.078125zm-8.53125 7.5l0 -3.71875l-2.96875 0l0 3.71875l2.96875 0zm0 -4.96875l0 -3.5l-2.96875 0l0 3.5l2.96875 0zm4.609375 0.734375q0.953125 1.5625 1.84375 3.34375q-0.734375 0.21875 -1.546875 0.671875q-0.59375 -1.78125 -1.71875 -3.34375q0.671875 -0.296875 1.421875 -0.671875z" fill-rule="nonzero"></path><path fill="#000000" d="m486.52118 572.87335q1.03125 -2.015625 1.25 -6.09375l-2.515625 0q0.21875 4.078125 1.265625 6.09375zm2.734375 -6.09375q-0.140625 4.609375 -1.78125 7.421875q1.1875 1.484375 3.34375 2.59375l-0.96875 1.640625q-2.375 -1.5625 -3.328125 -2.96875q-1.71875 1.9375 -5.28125 3.34375l-0.734375 -1.484375q3.859375 -1.5625 5.125 -3.203125q-1.265625 -2.4375 -1.421875 -4.890625q-0.4375 1.109375 -0.890625 1.703125l-1.25 -0.96875q2.21875 -3.265625 2.671875 -8.078125l1.546875 0.359375q0.453125 0.296875 -0.21875 0.453125q-0.21875 1.328125 -0.59375 2.671875l5.046875 0l0 1.40625l-1.265625 0zm-6.890625 -3.5625q-0.453125 1.109375 -1.046875 1.859375l-1.1875 -0.671875q0.59375 -0.96875 1.109375 -2.21875l1.34375 0.65625q0.296875 0.296875 -0.21875 0.375zm-4.75 10.46875q1.03125 0.296875 1.84375 0.671875q0.59375 -0.671875 0.96875 -2.015625l-2.15625 0q-0.296875 0.671875 -0.65625 1.34375zm-1.046875 1.859375l-1.1875 -0.671875q0.75 -1.109375 1.484375 -2.53125l-2.8125 0l0 -1.1875l3.265625 0q0.4375 -0.953125 0.65625 -1.625l1.421875 0.375q0.296875 0.296875 -0.234375 0.359375l-0.4375 0.890625l4.234375 0l0 1.1875l-1.125 0q-0.359375 1.484375 -1.109375 2.53125q0.671875 0.296875 1.40625 0.734375l-0.65625 1.1875q-0.828125 -0.515625 -1.484375 -0.8125q-1.9375 1.9375 -5.203125 2.375l-0.515625 -1.328125q2.890625 -0.296875 4.453125 -1.640625q-0.8125 -0.375 -1.640625 -0.671875l-0.515625 0.828125zm1.484375 -13.953125l1.1875 0q0.59375 0.0625 0.078125 0.4375l0 3.1875l3.78125 0l0 1.1875l-3.109375 0q0.8125 0.96875 2.515625 1.859375l-0.8125 1.265625q-1.265625 -0.75 -2.375 -2.078125l0 1.78125l-1.265625 0l0 -1.40625q-1.1875 1.484375 -3.265625 2.671875l-0.96875 -1.1875q2.3125 -1.1875 3.796875 -2.90625l-3.421875 0l0 -1.1875l3.859375 0l0 -3.625zm-2.078125 3.40625q-0.515625 -1.109375 -1.328125 -1.921875l1.1875 -0.75q0.890625 0.890625 1.328125 1.859375l-1.1875 0.8125zm23.15625 -2.96875l9.71875 0l0 4.671875l-3.328125 0l0 2.15625l4.15625 0l0 1.1875l-4.15625 0l0 2.234375l2.890625 0l0 6.15625l-1.265625 0l0 -0.8125l-4.453125 0l0 1.03125l-1.265625 0l0 -6.375l2.609375 0l0 -2.234375l-3.640625 0l0 1.1875q0 4.96875 -2.15625 7.203125l-1.109375 -1.109375q2.0 -2.015625 2.0 -6.390625l0 -8.90625zm8.015625 11.4375l-4.453125 0l0 2.96875l4.453125 0l0 -2.96875zm-3.109375 -4.609375l0 -2.15625l-3.640625 0l0 2.15625l3.640625 0zm-3.640625 -3.34375l6.96875 0l0 -2.296875l-6.96875 0l0 2.296875zm-1.9375 5.578125l-1.921875 0.65625l0 5.796875q0 1.1875 -1.1875 1.1875l-1.484375 0l-0.21875 -1.40625l1.109375 0q0.296875 0 0.296875 -0.296875l0 -4.828125l-1.5625 0.515625q-0.078125 0.515625 -0.375 0.21875l-0.515625 -1.78125l2.453125 -0.515625l0 -3.859375l-2.078125 0l0 -1.40625l2.078125 0l0 -3.859375l1.40625 0q0.59375 0.078125 0.078125 0.4375l0 3.421875l1.921875 0l0 1.40625l-1.921875 0l0 3.5625l1.78125 -0.515625l0.140625 1.265625z" fill-rule="nonzero"></path><path fill="#000000" d="m519.0993 567.1546q0.671875 -1.34375 0.890625 -2.15625q0.890625 0.453125 1.625 0.671875q-0.515625 0.59375 -1.03125 1.484375l4.59375 0q1.265625 0 2.53125 -0.078125l0 1.265625q-1.1875 -0.078125 -2.59375 -0.078125l-5.046875 0q-1.125 1.78125 -1.859375 2.828125l3.109375 0q0 -0.828125 -0.0625 -1.859375l1.546875 0q-0.0625 0.96875 -0.0625 1.859375l2.375 0q1.1875 0 2.0 -0.078125l0 1.328125q-0.671875 -0.0625 -2.078125 -0.0625l-2.296875 0l0 2.140625l3.40625 0q1.1875 0 2.453125 -0.0625l0 1.328125q-1.1875 -0.078125 -2.453125 -0.078125l-3.40625 0l0 1.421875q0 1.03125 0.0625 1.78125l-1.546875 0q0.0625 -0.75 0.0625 -1.78125l0 -1.421875l-3.78125 0q-1.1875 0 -2.75 0.078125l0 -1.328125q1.421875 0.0625 2.75 0.0625l3.78125 0l0 -2.140625l-2.4375 0q-1.640625 0.0625 -2.234375 0.296875l-0.515625 -1.34375q0.671875 -0.21875 1.265625 -1.109375q0.59375 -0.890625 1.1875 -1.859375q-1.859375 0 -3.203125 0.078125l0 -1.265625q1.34375 0.078125 3.71875 0.078125zm9.421875 -2.296875q-1.921875 -0.078125 -3.046875 -0.078125l-10.75 0q0 4.234375 -0.15625 6.46875q-0.140625 2.21875 -0.484375 4.078125q-0.328125 1.84375 -1.140625 3.484375q-0.59375 -0.453125 -1.484375 -0.8125q0.8125 -1.421875 1.109375 -2.5q0.296875 -1.078125 0.484375 -2.5625q0.1875 -1.484375 0.21875 -3.328125q0.03125 -1.859375 -0.03125 -5.9375l7.125 0q-0.234375 -0.828125 -0.75 -1.859375q0.8125 -0.21875 1.5625 -0.515625q0.59375 1.328125 0.890625 2.375l3.40625 0q1.1875 0 3.046875 -0.078125l0 1.265625z" fill-rule="nonzero"></path><path fill="#cfe2f3" d="m540.895 630.4488l278.2047 0l0 69.25989l-278.2047 0z" fill-rule="nonzero"></path><path stroke="#000000" stroke-width="1.0" stroke-linejoin="round" stroke-linecap="butt" d="m540.895 630.4488l278.2047 0l0 69.25989l-278.2047 0z" fill-rule="nonzero"></path><path fill="#000000" d="m655.98175 667.9206q1.03125 -2.015625 1.25 -6.09375l-2.515625 0q0.21875 4.078125 1.265625 6.09375zm2.734375 -6.09375q-0.140625 4.609375 -1.78125 7.421875q1.1875 1.484375 3.34375 2.59375l-0.96875 1.640625q-2.375 -1.5625 -3.328125 -2.96875q-1.71875 1.9375 -5.28125 3.34375l-0.734375 -1.484375q3.859375 -1.5625 5.125 -3.203125q-1.265625 -2.4375 -1.421875 -4.890625q-0.4375 1.109375 -0.890625 1.703125l-1.25 -0.96875q2.21875 -3.265625 2.671875 -8.078125l1.546875 0.359375q0.453125 0.296875 -0.21875 0.453125q-0.21875 1.328125 -0.59375 2.671875l5.046875 0l0 1.40625l-1.265625 0zm-6.890625 -3.5625q-0.453125 1.109375 -1.046875 1.859375l-1.1875 -0.671875q0.59375 -0.96875 1.109375 -2.21875l1.34375 0.65625q0.296875 0.296875 -0.21875 0.375zm-4.75 10.46875q1.03125 0.296875 1.84375 0.671875q0.59375 -0.671875 0.96875 -2.015625l-2.15625 0q-0.296875 0.671875 -0.65625 1.34375zm-1.046875 1.859375l-1.1875 -0.671875q0.75 -1.109375 1.484375 -2.53125l-2.8125 0l0 -1.1875l3.265625 0q0.4375 -0.953125 0.65625 -1.625l1.421875 0.375q0.296875 0.296875 -0.234375 0.359375l-0.4375 0.890625l4.234375 0l0 1.1875l-1.125 0q-0.359375 1.484375 -1.109375 2.53125q0.671875 0.296875 1.40625 0.734375l-0.65625 1.1875q-0.828125 -0.515625 -1.484375 -0.8125q-1.9375 1.9375 -5.203125 2.375l-0.515625 -1.328125q2.890625 -0.296875 4.453125 -1.640625q-0.8125 -0.375 -1.640625 -0.671875l-0.515625 0.828125zm1.484375 -13.953125l1.1875 0q0.59375 0.0625 0.078125 0.4375l0 3.1875l3.78125 0l0 1.1875l-3.109375 0q0.8125 0.96875 2.515625 1.859375l-0.8125 1.265625q-1.265625 -0.75 -2.375 -2.078125l0 1.78125l-1.265625 0l0 -1.40625q-1.1875 1.484375 -3.265625 2.671875l-0.96875 -1.1875q2.3125 -1.1875 3.796875 -2.90625l-3.421875 0l0 -1.1875l3.859375 0l0 -3.625zm-2.078125 3.40625q-0.515625 -1.109375 -1.328125 -1.921875l1.1875 -0.75q0.890625 0.890625 1.328125 1.859375l-1.1875 0.8125zm23.15625 -2.96875l9.71875 0l0 4.671875l-3.328125 0l0 2.15625l4.15625 0l0 1.1875l-4.15625 0l0 2.234375l2.890625 0l0 6.15625l-1.265625 0l0 -0.8125l-4.453125 0l0 1.03125l-1.265625 0l0 -6.375l2.609375 0l0 -2.234375l-3.640625 0l0 1.1875q0 4.96875 -2.15625 7.203125l-1.109375 -1.109375q2.0 -2.015625 2.0 -6.390625l0 -8.90625zm8.015625 11.4375l-4.453125 0l0 2.96875l4.453125 0l0 -2.96875zm-3.109375 -4.609375l0 -2.15625l-3.640625 0l0 2.15625l3.640625 0zm-3.640625 -3.34375l6.96875 0l0 -2.296875l-6.96875 0l0 2.296875zm-1.9375 5.578125l-1.921875 0.65625l0 5.796875q0 1.1875 -1.1875 1.1875l-1.484375 0l-0.21875 -1.40625l1.109375 0q0.296875 0 0.296875 -0.296875l0 -4.828125l-1.5625 0.515625q-0.078125 0.515625 -0.375 0.21875l-0.515625 -1.78125l2.453125 -0.515625l0 -3.859375l-2.078125 0l0 -1.40625l2.078125 0l0 -3.859375l1.40625 0q0.59375 0.078125 0.078125 0.4375l0 3.421875l1.921875 0l0 1.40625l-1.921875 0l0 3.5625l1.78125 -0.515625l0.140625 1.265625z" fill-rule="nonzero"></path><path fill="#000000" d="m691.8255 662.7956l0 -3.71875q0 -1.484375 -0.078125 -2.296875l1.5625 0q-0.078125 0.96875 -0.078125 1.703125l0 4.3125l3.046875 0q0.890625 0 1.921875 -0.078125l0 1.40625q-1.109375 -0.0625 -1.84375 -0.0625l-3.125 0l0 7.421875q0 0.890625 0.078125 2.15625l-1.5625 0q0.078125 -1.265625 0.078125 -2.09375l0 -7.484375l-2.890625 0q-1.125 0 -2.234375 0.0625l0 -1.40625q1.109375 0.078125 2.078125 0.078125l3.046875 0zm-6.390625 -0.15625q-0.0625 1.421875 -0.0625 2.96875l0 4.53125q1.25 -1.265625 2.0 -2.296875q0.4375 0.59375 1.03125 1.1875l-2.078125 2.078125q-0.953125 0.96875 -1.84375 1.9375q-0.53125 -0.671875 -0.96875 -1.203125q0.515625 -0.59375 0.4375 -1.78125l0 -6.15625q-2.0 0 -2.96875 0.078125l0 -1.40625q1.1875 0.0625 1.640625 0.0625l2.8125 0zm-1.84375 -5.640625q0.953125 0.96875 3.03125 3.125q-0.65625 0.59375 -1.25 1.109375q-0.96875 -1.40625 -2.90625 -3.34375q0.53125 -0.359375 1.125 -0.890625z" fill-rule="nonzero"></path><path fill="#000000" d="m699.8724 670.4362l0 -1.1875l5.5625 0l0 -1.109375l-1.265625 0l-1.1875 0l0 -7.046875l5.71875 0l-1.1875 -0.75q1.484375 -1.40625 2.21875 -3.9375l1.484375 0.59375q0.59375 0.234375 -0.21875 0.453125l-0.296875 0.59375l5.71875 0l0 1.1875l-3.421875 0l0.671875 1.109375l-1.484375 0.375l-0.671875 -1.484375l-1.328125 0q-0.453125 0.8125 -1.265625 1.859375l4.75 0l0 7.046875l-2.0 0l0 1.109375l5.125 0l0 1.1875l-5.125 0l0 3.203125l-1.484375 0l0 -3.203125l-3.421875 0q-0.21875 2.609375 -5.046875 3.5l-0.4375 -1.421875q3.640625 -0.4375 4.0 -2.078125l-5.40625 0zm4.515625 -13.359375q0.59375 0.21875 -0.21875 0.453125l-0.21875 0.515625l4.296875 0l0 1.1875l-2.296875 0l0.59375 1.109375l-1.5625 0.296875l-0.4375 -1.40625l-1.109375 0q-0.96875 1.703125 -2.234375 2.75l-1.109375 -1.125q2.078125 -1.78125 2.890625 -4.375l1.40625 0.59375zm8.015625 5.203125l-8.15625 0l0 0.953125l8.15625 0l0 -0.953125zm0 2.8125l0 -0.96875l-8.15625 0l0 0.96875l8.15625 0zm0 1.859375l0 -0.96875l-8.15625 0l0 0.96875l8.15625 0zm-2.21875 2.296875l0 -1.109375l-3.265625 0l0 1.109375l3.265625 0z" fill-rule="nonzero"></path><path fill="#cfe2f3" d="m42.97638 208.95013l88.34645 0l0 490.77167l-88.34645 0z" fill-rule="nonzero"></path><path stroke="#000000" stroke-width="1.0" stroke-linejoin="round" stroke-linecap="butt" d="m42.97638 208.95013l88.34645 0l0 490.77167l-88.34645 0z" fill-rule="nonzero"></path><path fill="#000000" d="m74.16523 445.58408q-1.484375 2.890625 -3.046875 5.34375q0.15625 0.734375 -0.21875 0.375l-1.5625 -1.34375q1.34375 -1.5625 3.484375 -5.421875l1.34375 1.046875zm7.859375 -6.984375q0.75 -1.109375 1.71875 -3.109375l1.484375 0.65625q0.515625 0.375 -0.078125 0.375q-1.1875 2.15625 -1.703125 2.828125l-1.421875 -0.75zm-9.9375 4.53125q-1.109375 -1.34375 -2.296875 -2.15625l0.890625 -1.109375q1.328125 0.734375 2.515625 2.078125l-1.109375 1.1875zm11.28125 4.453125l-6.3125 0l0 4.15625l-1.484375 0l0 -11.875l3.859375 0l0 -4.90625l1.40625 0q0.59375 0.078125 0.078125 0.453125l0 4.453125l3.9375 0l0 10.6875q0 1.046875 -1.046875 1.046875l-1.546875 0l-0.234375 -1.421875l1.046875 0q0.296875 0 0.296875 -0.296875l0 -2.296875zm-6.3125 -8.171875q-0.671875 -1.546875 -1.484375 -2.8125l1.40625 -0.8125q1.046875 1.328125 1.640625 2.890625l-1.5625 0.734375zm0 1.859375l0 1.703125l6.3125 0l0 -1.703125l-6.3125 0zm0 4.90625l6.3125 0l0 -1.78125l-6.3125 0l0 1.78125zm-3.9375 -7.28125q-1.109375 -1.1875 -2.4375 -2.0l0.8125 -1.109375q1.5625 0.8125 2.59375 2.0l-0.96875 1.109375zm15.21875 11.953125q1.109375 -2.078125 1.484375 -4.078125l1.5625 0.4375q0.59375 0.078125 0 0.453125q-0.59375 2.0 -1.5625 3.859375l-1.484375 -0.671875zm15.734375 0.15625q-1.328125 -2.234375 -2.890625 -3.640625l1.265625 -0.96875q1.84375 1.5625 3.03125 3.5625l-1.40625 1.046875zm-10.171875 -4.3125q0.59375 0.078125 0.078125 0.4375l0 2.53125q0 0.59375 0.515625 0.59375l4.609375 0q0.515625 0 0.671875 -0.453125l0.296875 -1.109375l1.546875 0.296875l-0.359375 1.421875q-0.296875 1.25 -2.078125 1.25l-5.34375 0q-1.34375 0 -1.34375 -1.25l0 -3.71875l1.40625 0zm-1.484375 -1.265625l0 0.671875l-1.484375 0l0 -9.5l4.015625 0l0.4375 -1.78125l1.71875 0.140625q0.4375 0.234375 -0.234375 0.375l-0.4375 1.265625l5.859375 0l0 9.421875l-1.484375 0l0 -0.59375l-8.390625 0zm4.015625 0.15625q1.328125 0.953125 2.453125 2.59375l-1.265625 0.96875q-1.265625 -1.78125 -2.296875 -2.671875l1.109375 -0.890625zm-4.015625 -1.34375l8.390625 0l0 -1.40625l-8.390625 0l0 1.40625zm8.390625 -3.9375l-8.390625 0l0 1.34375l8.390625 0l0 -1.34375zm-8.390625 -1.1875l8.390625 0l0 -1.328125l-8.390625 0l0 1.328125z" fill-rule="nonzero"></path><path fill="#000000" d="m82.00898 457.84973q-0.53125 0.59375 -1.5625 2.828125l3.1875 0q-0.078125 1.40625 -0.078125 2.8125q0 1.34375 0.078125 2.75l-11.65625 0q0.078125 -1.5625 0.078125 -2.890625q0 -1.40625 -0.078125 -2.671875l2.96875 0q-0.8125 -1.34375 -1.921875 -2.53125q0.515625 -0.296875 1.03125 -0.890625q1.421875 1.484375 2.078125 2.53125q-0.515625 0.375 -0.953125 0.890625l3.859375 0q0.953125 -2.375 1.1875 -3.5625q1.03125 0.515625 1.78125 0.734375zm0.140625 7.125l0 -3.1875l-8.75 0l0 3.1875l8.75 0zm-6.90625 2.96875q-0.0625 1.1875 -0.0625 2.3125q0 1.109375 0.03125 1.671875q0.03125 0.546875 1.21875 0.546875l3.9375 0q0.96875 0 1.1875 -1.859375q0.75 0.453125 1.5625 0.671875q-0.453125 1.5625 -1.078125 1.96875q-0.625 0.40625 -1.671875 0.34375l-4.96875 0q-1.40625 0 -1.484375 -0.828125q-0.078125 -0.8125 -0.078125 -2.078125q0 -1.328125 -0.078125 -2.75l1.484375 0zm-2.734375 0.375q-0.890625 3.046875 -1.5625 4.6875q-0.59375 -0.296875 -1.34375 -0.59375q0.890625 -1.71875 1.5625 -4.609375q0.59375 0.21875 1.34375 0.515625zm10.6875 -0.734375q2.21875 2.21875 3.109375 3.328125q-0.515625 0.53125 -1.109375 1.046875q-0.75 -1.046875 -3.046875 -3.484375q0.453125 -0.296875 1.046875 -0.890625zm-4.75 2.96875q-1.125 -1.78125 -2.015625 -2.75q0.453125 -0.453125 0.96875 -0.890625q0.671875 0.671875 2.234375 2.75q-0.671875 0.296875 -1.1875 0.890625zm18.953125 -11.0625q0 -1.109375 -0.234375 -2.453125q0.96875 0.078125 2.015625 0.21875q-0.234375 0.453125 -0.3125 1.453125q-0.0625 1.0 0.015625 2.859375l2.515625 -0.453125q1.265625 -0.296875 2.53125 -0.65625l0.296875 1.40625q-1.265625 0.140625 -2.609375 0.375l-2.671875 0.515625q0 1.1875 0.15625 2.078125l2.890625 -0.515625q1.484375 -0.296875 2.828125 -0.75l0.21875 1.40625q-1.34375 0.234375 -2.828125 0.53125l-2.890625 0.515625q0.15625 1.484375 0.75 2.75q0.65625 -0.53125 1.28125 -1.1875q0.640625 -0.671875 1.15625 -1.484375q1.125 0.890625 1.71875 1.1875q-0.96875 0.4375 -1.53125 1.0q-0.546875 0.546875 -1.8125 1.734375q0.890625 1.484375 1.59375 1.90625q0.703125 0.40625 1.0 0.03125q0.296875 -0.375 0.515625 -1.5625q0.671875 0.515625 1.5625 0.8125q-1.265625 3.28125 -2.75 2.640625q-1.484375 -0.625 -3.109375 -2.9375q-1.046875 0.828125 -2.046875 1.53125q-1.0 0.703125 -2.484375 1.453125q-0.375 -0.75 -1.109375 -1.34375q1.484375 -0.515625 2.515625 -1.109375q1.046875 -0.59375 2.375 -1.71875q-0.65625 -1.484375 -0.953125 -3.484375q-2.234375 0.375 -3.125 0.671875l-0.21875 -1.40625q0.890625 0 3.046875 -0.453125q-0.15625 -1.1875 -0.15625 -2.0q-2.0 0.4375 -2.75 0.671875l-0.296875 -1.421875q0.75 0 2.90625 -0.4375l0 -2.375zm-4.453125 -1.703125q-0.75 0.65625 -1.453125 1.890625q-0.703125 1.21875 -1.890625 3.0q1.78125 -0.078125 2.453125 -0.078125q0.65625 -1.109375 1.1875 -2.4375q0.734375 0.515625 1.625 0.8125q-0.734375 0.734375 -1.515625 2.0q-0.78125 1.265625 -2.71875 4.3125q2.015625 -0.15625 3.5625 -0.296875q-0.21875 0.734375 -0.21875 1.25q-0.515625 0 -2.296875 0.1875q-1.78125 0.1875 -2.890625 0.484375q-0.078125 -0.734375 -0.453125 -1.5625q0.890625 -0.21875 1.625 -1.171875q0.75 -0.96875 1.5625 -2.453125q-2.4375 0.140625 -3.109375 0.59375q-0.21875 -0.828125 -0.671875 -1.640625q0.96875 -0.671875 1.859375 -2.1875q0.890625 -1.515625 1.625 -3.53125q0.75 0.53125 1.71875 0.828125zm1.84375 11.875q-0.0625 0.8125 0 1.25q-1.84375 0.375 -3.328125 0.75q-1.484375 0.375 -2.75 0.8125q-0.21875 -0.8125 -0.8125 -1.625q2.078125 -0.234375 3.1875 -0.40625q1.109375 -0.1875 3.703125 -0.78125zm6.765625 -9.359375q-0.53125 -0.8125 -1.421875 -1.921875l1.1875 -0.59375q0.296875 0.359375 1.484375 1.78125q-0.734375 0.296875 -1.25 0.734375z" fill-rule="nonzero"></path><path fill="#cfe2f3" d="m838.6772 208.95013l88.346436 0l0 490.77167l-88.346436 0z" fill-rule="nonzero"></path><path stroke="#000000" stroke-width="1.0" stroke-linejoin="round" stroke-linecap="butt" d="m838.6772 208.95013l88.346436 0l0 490.77167l-88.346436 0z" fill-rule="nonzero"></path><path fill="#000000" d="m881.1629 440.52158q-4.15625 -2.609375 -5.265625 -7.359375q-0.375 5.125 -4.59375 7.578125l-0.828125 -1.5625q4.234375 -2.296875 4.234375 -8.6875l-3.859375 0l0 -1.40625l3.9375 0l0 -5.046875l1.40625 0q0.59375 0.078125 0.078125 0.453125l0 4.59375l5.265625 0l0 1.40625l-4.890625 0q0.734375 5.578125 5.34375 8.171875l-0.828125 1.859375zm-16.09375 -5.9375q2.375 -1.125 3.625 -2.015625l0 -8.453125l1.421875 0q0.59375 0.078125 0.0625 0.4375l0 16.1875l-1.484375 0l0 -6.453125l-2.671875 1.78125q-0.0625 0.515625 -0.359375 0.21875l-0.59375 -1.703125zm1.625 -3.125q-0.4375 -1.78125 -1.40625 -3.5625l1.484375 -0.59375q0.96875 1.5625 1.484375 3.640625l-1.5625 0.515625zm11.65625 -6.453125q1.484375 0.8125 2.078125 2.0l-1.1875 1.1875q-0.75 -1.1875 -2.0 -2.078125l1.109375 -1.109375z" fill-rule="nonzero"></path><path fill="#000000" d="m890.6629 426.4122q0.375 -1.40625 0.453125 -2.75q1.03125 0.375 1.859375 0.453125q-0.375 0.671875 -0.75 2.296875l5.71875 0q1.03125 0 2.375 -0.140625l0 1.546875q-1.40625 -0.0625 -2.453125 -0.0625l-3.046875 0q0.75 1.703125 1.78125 2.640625q1.046875 0.921875 2.0 1.375q0.96875 0.4375 2.53125 0.734375q-0.890625 0.59375 -1.265625 1.484375q-2.296875 -0.96875 -3.40625 -1.890625q-1.109375 -0.9375 -1.859375 -1.96875q-0.734375 -1.046875 -1.1875 -2.375l-1.5625 0q-0.890625 2.0 -2.34375 3.53125q-1.4375 1.515625 -4.328125 3.140625q-0.21875 -0.671875 -1.265625 -1.328125q1.78125 -0.59375 3.59375 -2.0q1.828125 -1.421875 2.71875 -3.34375l-3.34375 0q-1.1875 0 -2.515625 0.0625l0 -1.546875q1.25 0.140625 2.515625 0.140625l3.78125 0zm-0.140625 8.828125q-0.078125 1.421875 -0.078125 2.3125q0 0.8125 0.03125 1.265625q0.046875 0.4375 0.859375 0.4375l3.046875 0q0.59375 0.078125 1.03125 -0.1875q0.453125 -0.265625 0.671875 -1.671875q0.75 0.515625 1.703125 0.75q-0.59375 1.5625 -1.046875 2.03125q-0.4375 0.484375 -1.84375 0.421875l-4.453125 0q-1.328125 -0.15625 -1.453125 -0.859375q-0.109375 -0.703125 -0.109375 -1.75q0 -1.109375 -0.0625 -2.75l1.703125 0zm-3.265625 0.53125q-0.75 2.140625 -1.78125 4.453125q-0.59375 -0.453125 -1.484375 -0.59375q1.328125 -2.234375 1.625 -4.453125q0.890625 0.359375 1.640625 0.59375zm11.125 -1.046875q1.265625 1.703125 2.609375 3.484375q-0.75 0.53125 -1.34375 1.046875q-1.109375 -2.078125 -2.515625 -3.71875q0.734375 -0.296875 1.25 -0.8125zm-7.34375 -4.53125q1.40625 1.125 2.375 2.15625q-0.671875 0.453125 -1.1875 1.046875q-0.8125 -1.125 -2.21875 -2.15625l1.03125 -1.046875zm2.0 3.859375q0.75 1.1875 1.34375 2.453125q-0.59375 0.375 -1.34375 0.75q-0.515625 -1.484375 -1.25 -2.53125q0.65625 -0.21875 1.25 -0.671875z" fill-rule="nonzero"></path><path fill="#000000" d="m881.44415 447.52158l0 1.1875l-3.5625 0l0.734375 1.484375l-1.625 0.296875l-0.671875 -1.78125l-1.1875 0q-0.4375 0.75 -1.03125 1.40625l0 0.96875l6.96875 0l0 3.34375l-1.484375 0l0 -2.15625l-12.25 0l0 2.15625l-1.484375 0l0 -3.34375l0.296875 0l-0.953125 -1.1875q2.140625 -1.703125 3.03125 -4.078125l1.5625 0.140625q0.375 0.234375 -0.140625 0.453125q-0.375 0.734375 -0.59375 1.109375l4.15625 0l0 1.1875l-2.3125 0l0.671875 1.484375l-1.625 0.375l-0.53125 -1.859375l-0.953125 0q-0.828125 1.1875 -2.15625 2.375l6.3125 0l0 -0.8125l-0.296875 -0.375q1.921875 -1.859375 2.4375 -4.078125l1.5625 0.140625q0.296875 0.234375 -0.140625 0.453125q-0.296875 0.734375 -0.53125 1.109375l5.796875 0zm-3.1875 5.859375l0 3.859375l-8.25 0l0 0.96875l8.984375 0l0 4.53125l-1.484375 0l0 -0.4375l-7.5 0l0 0.59375l-1.484375 0l0 -9.515625l9.734375 0zm-0.75 6.015625l-7.5 0l0 1.703125l7.5 0l0 -1.703125zm-0.734375 -4.828125l-6.765625 0l0 1.484375l6.765625 0l0 -1.484375zm13.421875 3.796875q-2.890625 1.03125 -5.40625 1.703125q-0.234375 0.59375 -0.453125 0.21875l-0.515625 -1.703125l2.59375 -0.515625l0 -4.09375l-2.0 0l0 -1.40625l2.0 0l0 -3.9375l-2.21875 0l0 -1.40625l5.9375 0l0 1.40625l-2.234375 0l0 3.9375l2.0 0l0 1.40625l-2.0 0l0 3.71875q0.59375 -0.078125 2.15625 -0.59375l0.140625 1.265625zm5.875 -3.5l0 2.15625l4.15625 0l0 1.40625l-4.15625 0l0 2.3125l4.890625 0l0 1.40625l-11.796875 0l0 -1.40625l5.640625 0l0 -2.3125l-4.015625 0l0 -1.40625l4.015625 0l0 -2.15625l-2.671875 0l0 0.96875l-1.265625 0l0 -9.125l9.203125 0l0 8.828125l-1.265625 0l0 -0.671875l-2.734375 0zm2.734375 -3.40625l-2.734375 0l0 2.21875l2.734375 0l0 -2.21875zm0 -3.5625l-2.734375 0l0 2.375l2.734375 0l0 -2.375zm-4.0 2.375l0 -2.375l-2.671875 0l0 2.375l2.671875 0zm0 1.1875l-2.671875 0l0 2.21875l2.671875 0l0 -2.21875z" fill-rule="nonzero"></path><path fill="#cfe2f3" d="m151.63518 424.3596l278.2047 0l0 69.25983l-278.2047 0z" fill-rule="nonzero"></path><path stroke="#000000" stroke-width="1.0" stroke-linejoin="round" stroke-linecap="butt" d="m151.63518 424.3596l278.2047 0l0 69.25983l-278.2047 0z" fill-rule="nonzero"></path><path fill="#000000" d="m261.64377 450.9876q-0.15625 2.078125 -0.15625 3.5625l0 10.90625l2.453125 0l0 -11.796875q0 -1.1875 -0.140625 -2.671875l1.84375 0q-0.140625 1.1875 -0.140625 2.53125l0 11.9375l2.890625 0q1.1875 0 2.890625 -0.140625l0 1.640625q-1.703125 -0.15625 -2.8125 -0.15625l-11.28125 0q-1.046875 0 -2.9687347 0.15625l0 -1.640625q1.9218597 0.140625 2.8906097 0.140625l2.75 0l0 -10.984375q0 -1.546875 -0.21875 -3.484375l2.0 0zm-5.34375 3.71875q0.890625 2.296875 2.453125 6.75q-0.828125 0.140625 -1.71875 0.59375q-1.3281097 -4.3125 -2.3749847 -6.6875q0.75 -0.296875 1.6406097 -0.65625zm14.328125 0.4375q-0.96875 2.53125 -2.671875 7.046875q-0.75 -0.4375 -1.5625 -0.65625q1.5625 -2.90625 2.375 -6.984375q0.8125 0.296875 1.859375 0.59375zm9.75 -3.9375q-0.59375 0.53125 -1.046875 1.1875l8.234375 0q-0.65625 1.125 -1.734375 2.390625q-1.078125 1.25 -2.71875 2.359375q1.046875 0.671875 2.828125 1.015625q1.78125 0.328125 4.234375 0.40625q-0.59375 0.65625 -0.828125 1.546875q-2.078125 -0.140625 -4.078125 -0.734375q-2.0 -0.59375 -3.34375 -1.40625q-2.375 1.109375 -4.3125 1.625q-1.921875 0.515625 -3.765625 0.8125q-0.296875 -0.890625 -0.890625 -1.546875q1.625 0 3.703125 -0.4375q2.078125 -0.453125 4.078125 -1.28125q-1.546875 -1.484375 -2.671875 -3.03125q-1.25 1.546875 -2.59375 2.59375q-0.515625 -0.59375 -1.328125 -0.890625q2.078125 -1.484375 3.03125 -2.859375q0.96875 -1.375 1.421875 -2.5625q0.953125 0.515625 1.78125 0.8125zm-0.15625 9.796875q0.15625 -0.890625 0.15625 -2.078125q0.890625 0.15625 1.78125 0.234375q-0.234375 0.4375 -0.453125 1.84375l6.015625 0q-0.078125 0.890625 -0.15625 2.046875q-0.0625 1.15625 -0.25 2.5q-0.1875 1.328125 -1.078125 1.546875q-0.890625 0.21875 -2.828125 0.453125q-0.140625 -0.96875 -0.734375 -1.640625q2.15625 0 2.59375 -0.140625q0.453125 -0.15625 0.59375 -0.828125l0.21875 -2.8125l-4.515625 0q-1.046875 3.1875 -2.9375 4.15625q-1.890625 0.96875 -4.046875 1.703125q-0.21875 -0.671875 -1.03125 -1.5625q1.78125 -0.140625 3.703125 -1.109375q1.9375 -0.96875 2.75 -3.1875l-1.703125 0q-2.234375 0 -3.265625 0.140625l0 -1.328125q1.109375 0.0625 3.328125 0.0625l1.859375 0zm1.78125 -4.671875q1.484375 -0.890625 2.890625 -2.8125l-5.5625 0q1.40625 1.84375 2.671875 2.8125zm24.21875 -2.515625l0 7.5625l-5.5625 0l0 1.78125l4.90625 0q1.625 0 2.8125 -0.078125l0 1.484375q-1.265625 -0.0625 -2.8125 -0.0625l-4.90625 0q0 2.296875 0.078125 3.265625l-1.640625 0q0.15625 -0.96875 0.15625 -3.265625l-4.828125 0q-1.78125 0 -2.59375 0.0625l0 -1.484375q0.734375 0.078125 2.453125 0.078125l4.96875 0l0 -1.78125l-5.34375 0q0.078125 -1.265625 0.078125 -3.640625q0 -2.375 -0.078125 -3.921875l7.34375 0q0.8125 -1.71875 1.40625 -3.5q0.75 0.375 1.71875 0.828125q-0.296875 0.359375 -0.75 1.140625q-0.4375 0.78125 -0.890625 1.53125l3.484375 0zm-1.484375 6.375l0 -2.0l-4.078125 0l0 2.0l4.078125 0zm0 -3.1875l0 -1.9375l-4.078125 0l0 1.9375l4.078125 0zm-5.484375 3.1875l0 -2.0l-3.859375 0l0 2.0l3.859375 0zm0 -3.1875l0 -1.9375l-3.859375 0l0 1.9375l3.859375 0zm-2.453125 -6.609375q0.75 0.8125 1.703125 2.59375q-0.8125 0.375 -1.328125 0.671875q-0.75 -1.625 -1.484375 -2.515625q0.515625 -0.296875 1.109375 -0.75z" fill-rule="nonzero"></path><path fill="#000000" d="m327.19064 462.94073l-0.296875 1.5625q-0.375 2.0 -2.078125 2.0l-3.5 0q-1.40625 0 -1.40625 -1.703125l0 -6.6875l-2.515625 0l0 1.703125q0 5.796875 -6.09375 7.359375l-0.734375 -1.78125q5.109375 -1.265625 5.109375 -5.5l0 -1.78125l-4.890625 0l0 -1.40625l15.953125 0l0 1.40625l-5.125 0l0 6.15625q0 0.59375 0.53125 0.59375l2.0 0q0.890625 0 1.03125 -0.734375l0.296875 -1.703125l1.71875 0.515625zm-2.3125 -9.578125l-12.171875 0l0 -1.40625l12.171875 0l0 1.40625z" fill-rule="nonzero"></path><path fill="#93c47d" d="m540.895 424.3596l278.2047 0l0 69.25983l-278.2047 0z" fill-rule="nonzero"></path><path stroke="#000000" stroke-width="1.0" stroke-linejoin="round" stroke-linecap="butt" d="m540.895 424.3596l278.2047 0l0 69.25983l-278.2047 0z" fill-rule="nonzero"></path><path fill="#000000" d="m615.2786 451.95636l16.328125 0l0 1.625l-2.296875 0l0 12.171875q0 1.421875 -1.34375 1.421875l-2.515625 0l-0.296875 -1.640625l2.140625 0q0.296875 0 0.296875 -0.296875l0 -11.65625l-12.3125 0l0 -1.625zm9.796875 11.421875l-1.703125 0l0 -0.65625l-4.09375 0l0 1.40625l-1.703125 0l0 -7.9375l7.5 0l0 7.1875zm-1.703125 -5.78125l-4.09375 0l0 3.703125l4.09375 0l0 -3.703125zm10.90625 8.6875q3.640625 -2.234375 3.5625 -7.125l1.703125 0.296875q0.21875 0.21875 -0.140625 0.4375l-0.375 2.671875q1.109375 1.34375 2.890625 2.296875l0 -7.1875l-5.046875 0l0 -1.421875l11.203125 0l0 1.421875l-4.671875 0l0 2.734375l5.203125 0l0 1.421875l-5.203125 0l0 3.5625q1.109375 0.296875 2.234375 0.296875l4.890625 0l-0.296875 1.40625l-4.59375 0q-4.3125 0 -7.0625 -3.125q-1.109375 2.453125 -3.109375 3.71875l-1.1875 -1.40625zm9.046875 -13.59375l6.828125 0l0 3.9375l-1.484375 0l0 -2.515625l-12.3125 0l0 2.671875l-1.484375 0l0 -4.09375l6.75 0l0 -2.140625l1.640625 0q0.734375 0.140625 0.0625 0.59375l0 1.546875zm24.046875 13.296875q0.296875 0 0.296875 -0.296875l0 -14.484375l1.421875 0q0.59375 0.078125 0.0625 0.453125l0 14.703125q0 1.03125 -1.03125 1.03125l-1.703125 0l-0.375 -1.40625l1.328125 0zm-11.34375 -12.703125l1.703125 0l0 -2.59375l1.40625 0q0.59375 0.078125 0.078125 0.453125l0 2.140625l3.34375 0l0 1.421875l-3.34375 0l0 1.921875l4.59375 0l0 1.40625l-4.59375 0l0 1.421875l3.484375 0l0 5.484375q0 1.046875 -1.03125 1.046875l-1.125 0l-0.296875 -1.421875l0.671875 0q0.296875 0 0.296875 -0.296875l0 -3.40625l-2.0 0l0 6.609375l-1.484375 0l0 -6.609375l-1.78125 0l0 5.125l-1.484375 0l0 -6.53125l3.265625 0l0 -1.421875l-4.671875 0l0 -1.40625l4.671875 0l0 -1.921875l-2.296875 0q-0.453125 0.8125 -0.96875 1.546875l-1.1875 -0.8125q1.109375 -1.5625 2.15625 -4.078125l1.328125 0.4375q0.296875 0.296875 -0.21875 0.375l-0.515625 1.109375zm8.453125 10.328125l0 -11.0625l1.40625 0q0.59375 0.078125 0.078125 0.4375l0 10.625l-1.484375 0z" fill-rule="nonzero"></path><path fill="#000000" d="m679.4036 450.9876q-0.15625 2.078125 -0.15625 3.5625l0 10.90625l2.453125 0l0 -11.796875q0 -1.1875 -0.140625 -2.671875l1.84375 0q-0.140625 1.1875 -0.140625 2.53125l0 11.9375l2.890625 0q1.1875 0 2.890625 -0.140625l0 1.640625q-1.703125 -0.15625 -2.8125 -0.15625l-11.28125 0q-1.046875 0 -2.96875 0.15625l0 -1.640625q1.921875 0.140625 2.890625 0.140625l2.75 0l0 -10.984375q0 -1.546875 -0.21875 -3.484375l2.0 0zm-5.34375 3.71875q0.890625 2.296875 2.453125 6.75q-0.828125 0.140625 -1.71875 0.59375q-1.328125 -4.3125 -2.375 -6.6875q0.75 -0.296875 1.640625 -0.65625zm14.328125 0.4375q-0.96875 2.53125 -2.671875 7.046875q-0.75 -0.4375 -1.5625 -0.65625q1.5625 -2.90625 2.375 -6.984375q0.8125 0.296875 1.859375 0.59375zm9.75 -3.9375q-0.59375 0.53125 -1.046875 1.1875l8.234375 0q-0.65625 1.125 -1.734375 2.390625q-1.078125 1.25 -2.71875 2.359375q1.046875 0.671875 2.828125 1.015625q1.78125 0.328125 4.234375 0.40625q-0.59375 0.65625 -0.828125 1.546875q-2.078125 -0.140625 -4.078125 -0.734375q-2.0 -0.59375 -3.34375 -1.40625q-2.375 1.109375 -4.3125 1.625q-1.921875 0.515625 -3.765625 0.8125q-0.296875 -0.890625 -0.890625 -1.546875q1.625 0 3.703125 -0.4375q2.078125 -0.453125 4.078125 -1.28125q-1.546875 -1.484375 -2.671875 -3.03125q-1.25 1.546875 -2.59375 2.59375q-0.515625 -0.59375 -1.328125 -0.890625q2.078125 -1.484375 3.03125 -2.859375q0.96875 -1.375 1.421875 -2.5625q0.953125 0.515625 1.78125 0.8125zm-0.15625 9.796875q0.15625 -0.890625 0.15625 -2.078125q0.890625 0.15625 1.78125 0.234375q-0.234375 0.4375 -0.453125 1.84375l6.015625 0q-0.078125 0.890625 -0.15625 2.046875q-0.0625 1.15625 -0.25 2.5q-0.1875 1.328125 -1.078125 1.546875q-0.890625 0.21875 -2.828125 0.453125q-0.140625 -0.96875 -0.734375 -1.640625q2.15625 0 2.59375 -0.140625q0.453125 -0.15625 0.59375 -0.828125l0.21875 -2.8125l-4.515625 0q-1.046875 3.1875 -2.9375 4.15625q-1.890625 0.96875 -4.046875 1.703125q-0.21875 -0.671875 -1.03125 -1.5625q1.78125 -0.140625 3.703125 -1.109375q1.9375 -0.96875 2.75 -3.1875l-1.703125 0q-2.234375 0 -3.265625 0.140625l0 -1.328125q1.109375 0.0625 3.328125 0.0625l1.859375 0zm1.78125 -4.671875q1.484375 -0.890625 2.890625 -2.8125l-5.5625 0q1.40625 1.84375 2.671875 2.8125zm24.21875 -2.515625l0 7.5625l-5.5625 0l0 1.78125l4.90625 0q1.625 0 2.8125 -0.078125l0 1.484375q-1.265625 -0.0625 -2.8125 -0.0625l-4.90625 0q0 2.296875 0.078125 3.265625l-1.640625 0q0.15625 -0.96875 0.15625 -3.265625l-4.828125 0q-1.78125 0 -2.59375 0.0625l0 -1.484375q0.734375 0.078125 2.453125 0.078125l4.96875 0l0 -1.78125l-5.34375 0q0.078125 -1.265625 0.078125 -3.640625q0 -2.375 -0.078125 -3.921875l7.34375 0q0.8125 -1.71875 1.40625 -3.5q0.75 0.375 1.71875 0.828125q-0.296875 0.359375 -0.75 1.140625q-0.4375 0.78125 -0.890625 1.53125l3.484375 0zm-1.484375 6.375l0 -2.0l-4.078125 0l0 2.0l4.078125 0zm0 -3.1875l0 -1.9375l-4.078125 0l0 1.9375l4.078125 0zm-5.484375 3.1875l0 -2.0l-3.859375 0l0 2.0l3.859375 0zm0 -3.1875l0 -1.9375l-3.859375 0l0 1.9375l3.859375 0zm-2.453125 -6.609375q0.75 0.8125 1.703125 2.59375q-0.8125 0.375 -1.328125 0.671875q-0.75 -1.625 -1.484375 -2.515625q0.515625 -0.296875 1.109375 -0.75z" fill-rule="nonzero"></path><path fill="#000000" d="m744.9505 462.94073l-0.296875 1.5625q-0.375 2.0 -2.078125 2.0l-3.5 0q-1.40625 0 -1.40625 -1.703125l0 -6.6875l-2.515625 0l0 1.703125q0 5.796875 -6.09375 7.359375l-0.734375 -1.78125q5.109375 -1.265625 5.109375 -5.5l0 -1.78125l-4.890625 0l0 -1.40625l15.953125 0l0 1.40625l-5.125 0l0 6.15625q0 0.59375 0.53125 0.59375l2.0 0q0.890625 0 1.03125 -0.734375l0.296875 -1.703125l1.71875 0.515625zm-2.3125 -9.578125l-12.171875 0l0 -1.40625l12.171875 0l0 1.40625z" fill-rule="nonzero"></path><path fill="#cfe2f3" d="m151.26772 323.34384l667.4646 0l0 69.25983l-667.4646 0z" fill-rule="nonzero"></path><path stroke="#000000" stroke-width="1.0" stroke-linejoin="round" stroke-linecap="butt" d="m151.26772 323.34384l667.4646 0l0 69.25983l-667.4646 0z" fill-rule="nonzero"></path><path fill="#000000" d="m455.10938 360.58124q0 -1.25 -0.0625 -2.96875l8.609375 0q-0.078125 1.265625 -0.078125 2.53125l0 5.34375q0 0.671875 -0.484375 0.859375q-0.484375 0.1875 -1.671875 0.40625q-0.140625 -0.671875 -0.59375 -1.34375q1.34375 0 1.34375 -0.4375l0 -1.484375l-5.640625 0l0 3.109375l-1.484375 0q0.0625 -1.484375 0.0625 -2.890625l0 -3.125zm-1.546875 -5.046875q1.1875 0.078125 5.046875 0.078125l0 -1.40625q-2.828125 0 -4.015625 0.078125l0 -1.125q1.1875 0.078125 4.015625 0.078125l0 -1.109375q-3.203125 0 -4.453125 0.078125l0 -1.1875q1.328125 0.0625 4.453125 0.0625q0 -0.8125 -0.078125 -1.546875l1.5625 0q-0.078125 0.8125 -0.078125 1.546875q3.484375 0 4.671875 -0.0625l0 1.1875q-1.1875 -0.078125 -4.671875 -0.078125l0 1.109375q3.265625 0 4.234375 -0.078125l0 1.125q-1.125 -0.078125 -4.234375 -0.078125l0 1.40625q4.234375 0 5.34375 -0.078125l0 1.1875q-0.96875 -0.0625 -5.796875 -0.0625q-4.75 0 -6.0 0.0625l0 -1.1875zm0.734375 6.90625q-0.96875 0.75 -2.015625 1.6875q-1.03125 0.921875 -1.6875 1.65625q-0.53125 -0.8125 -1.046875 -1.34375q0.75 -0.515625 0.75 -1.40625l0 -6.3125q-1.125 0 -2.3125 0.078125l0 -1.328125q0.96875 0.0625 1.5625 0.0625l2.15625 0q-0.078125 1.1875 -0.078125 2.671875l0 4.828125q1.1875 -1.03125 1.859375 -1.859375q0.296875 0.75 0.8125 1.265625zm7.875 0l0 -1.40625l-5.640625 0l0 1.40625l5.640625 0zm0 -2.453125l0 -1.25l-5.640625 0l0 1.25l5.640625 0zm-10.328125 -6.234375q-1.109375 -1.625 -2.515625 -2.890625q0.515625 -0.375 0.96875 -0.8125q1.703125 1.484375 2.671875 2.75q-0.671875 0.59375 -1.125 0.953125z" fill-rule="nonzero"></path><path fill="#000000" d="m467.01562 362.95624q4.53125 -2.4375 7.34375 -4.890625l0 -3.640625l-7.265625 0l0 -1.40625l7.265625 0l0 -3.34375l1.421875 0q0.59375 0.078125 0.0625 0.453125l0 2.890625l3.859375 0q-0.890625 -0.890625 -2.375 -1.5625l1.1875 -1.265625q1.34375 0.53125 2.609375 1.71875l-1.1875 1.109375l3.109375 0l0 1.40625l-7.203125 0l0 0.59375q0.296875 1.265625 1.5625 3.1875q1.640625 -1.1875 3.046875 -2.890625l1.40625 1.265625q0.078125 0.375 -0.375 0.21875q-1.03125 1.046875 -3.109375 2.53125q1.625 2.140625 5.265625 3.78125l-0.96875 1.859375q-4.515625 -2.234375 -6.828125 -6.828125l0 7.046875q0 1.1875 -1.1875 1.1875l-1.84375 0l-0.296875 -1.640625l1.546875 0q0.296875 0 0.296875 -0.296875l0 -4.375q-1.921875 1.78125 -5.859375 4.3125q0.15625 0.4375 -0.21875 0.359375l-1.265625 -1.78125zm4.078125 -3.5625q-1.1875 -1.484375 -2.4375 -2.4375l1.25 -1.265625q1.34375 0.734375 2.609375 2.21875l-1.421875 1.484375zm28.796875 4.828125l0 -3.34375l-3.703125 0l0 3.34375l3.703125 0zm1.484375 2.015625l-1.484375 0l0 -0.828125l-3.703125 0l0 1.046875l-1.484375 0l0 -6.765625l6.671875 0l0 6.546875zm-5.265625 -13.8125q0.375 1.03125 1.859375 2.671875q1.328125 -1.78125 1.703125 -2.671875l-3.5625 0zm1.859375 4.75q-2.59375 2.375 -4.828125 3.1875l-0.671875 -1.484375q2.078125 -0.671875 4.53125 -2.8125q-0.59375 -0.59375 -1.5625 -2.15625q-0.734375 1.703125 -1.484375 2.453125l-1.109375 -1.125q1.78125 -2.375 2.75 -5.9375l1.5625 0.453125q0.296875 0.296875 -0.234375 0.375l-0.359375 0.890625l3.78125 0l0.21875 -0.375l1.1875 0.96875q0.296875 0.21875 -0.296875 0.4375q-1.03125 2.375 -2.453125 4.015625q2.53125 1.921875 4.3125 2.515625l-0.59375 1.640625q-1.78125 -0.59375 -4.75 -3.046875zm-5.421875 -6.6875l0 5.5l-1.859375 0l0 2.75l1.71875 0l0 1.40625l-1.71875 0l0 3.40625l2.609375 -0.8125l0.296875 1.34375l-6.828125 1.921875q-0.078125 0.59375 -0.375 0.296875l-0.59375 -1.625l0.890625 -0.15625l0 -6.90625l1.40625 0q0.59375 0.078125 0.078125 0.453125l0 6.078125l1.03125 -0.21875l0 -7.9375l-1.328125 0l-1.265625 0l0 -5.5l5.9375 0zm-1.484375 4.3125l0 -3.125l-2.96875 0l0 3.125l2.96875 0zm16.84375 8.90625l4.75 0l0 -3.859375l-4.75 0l0 3.859375zm0 -5.265625l4.75 0l0 -3.859375l-4.75 0l0 3.859375zm10.984375 0l0 -3.859375l-4.75 0l0 3.859375l4.75 0zm-4.75 5.265625l4.75 0l0 -3.859375l-4.75 0l0 3.859375zm-7.71875 2.59375l0 -13.140625l6.234375 0l0 -3.484375l1.421875 0q0.59375 0.078125 0.0625 0.453125l0 3.03125l6.234375 0l0 12.84375l-1.484375 0l0 -0.890625l-10.984375 0l0 1.1875l-1.484375 0z" fill-rule="nonzero"></path><path fill="#cfe2f3" d="m151.26772 208.95013l667.4646 0l0 69.25983l-667.4646 0z" fill-rule="nonzero"></path><path stroke="#000000" stroke-width="1.0" stroke-linejoin="round" stroke-linecap="butt" d="m151.26772 208.95013l667.4646 0l0 69.25983l-667.4646 0z" fill-rule="nonzero"></path><path fill="#000000" d="m411.9375 242.7813l0.59375 0.21875q0.296875 0.296875 -0.21875 0.375l-0.671875 1.328125l5.640625 0l0 1.421875l-1.921875 0q-0.59375 1.921875 -1.40625 2.890625q1.84375 0.671875 3.484375 1.640625l-0.890625 1.328125q-2.453125 -1.328125 -3.640625 -1.859375q-2.453125 1.640625 -5.71875 2.15625l-0.515625 -1.328125q3.125 -0.375 4.75 -1.5l-1.921875 -0.8125l-0.453125 0.671875l-1.1875 -0.59375l1.484375 -2.59375l-2.21875 0l0 -1.421875l2.96875 0l0.890625 -1.921875l-4.53125 0l0 -1.40625l3.046875 0l-0.828125 -2.671875l-1.109375 0l0 -1.421875l3.640625 0l0 -2.078125l1.40625 0q0.59375 0.078125 0.078125 0.453125l0 1.625l4.15625 0l0 1.421875l-1.5625 0l-0.8125 2.671875l3.40625 0l0 1.40625l-5.9375 0zm0.671875 5.71875q0.75 -0.828125 1.1875 -2.375l-2.8125 0l-0.890625 1.484375l2.515625 0.890625zm-1.5625 -7.125l1.9375 0l0.734375 -2.671875l-3.484375 0l0.8125 2.671875zm-7.9375 -6.171875l1.40625 0q0.59375 0.078125 0.078125 0.453125l0 2.890625l2.078125 0l0 1.40625l-2.078125 0l0 3.859375l1.5625 -0.515625l0.515625 1.265625l-2.078125 0.8125l0 5.875q0 1.03125 -1.03125 1.03125l-1.421875 0l-0.21875 -1.40625l0.890625 0q0.296875 0 0.296875 -0.296875l0 -4.6875l-1.265625 0.375q-0.0625 0.515625 -0.359375 0.21875l-0.59375 -1.625l2.21875 -0.59375l0 -4.3125l-2.0 0l0 -1.40625l2.0 0l0 -3.34375zm32.515625 16.265625q-5.71875 -2.96875 -7.203125 -9.359375q-1.5625 7.203125 -7.5 9.796875l-0.890625 -1.703125q6.453125 -2.671875 6.984375 -10.3125l0.953125 0.0625l0 -2.375l-3.859375 0l0 -1.40625l5.578125 0l0 2.671875q0 7.125 6.96875 10.765625l-1.03125 1.859375zm8.078125 -13.59375l-3.109375 0l0 -1.40625l8.75 0l0.234375 -0.4375l1.546875 0.8125l-0.296875 0.4375l-1.03125 3.265625l2.515625 0l0.234375 -0.359375l1.328125 1.03125q0.15625 0.15625 -0.296875 0.296875q-1.265625 4.15625 -3.1875 6.3125q1.625 1.1875 5.125 2.0l-0.671875 1.859375q-3.5625 -1.109375 -5.5625 -2.75q-1.78125 1.71875 -6.09375 3.046875l-0.734375 -1.703125q4.21875 -1.125 5.640625 -2.453125q-2.15625 -2.59375 -3.125 -5.265625q-0.671875 5.859375 -4.96875 8.90625l-1.046875 -1.484375q4.75 -3.421875 4.75 -9.953125l0 -2.15625zm1.71875 0l0 2.015625q0.515625 2.96875 3.78125 6.96875q1.484375 -1.703125 2.515625 -4.890625l-2.375 0l-0.359375 1.03125l-1.484375 -0.4375l1.546875 -4.6875l-3.625 0zm26.78125 8.015625l-4.8125 0l0 5.65625l-1.484375 0l0 -5.65625l-4.453125 0q-0.15625 3.859375 -2.3125 6.171875l-1.1875 -1.1875q2.015625 -2.234375 2.015625 -5.203125l0 -9.5l13.71875 0l0 14.171875q0 1.203125 -1.1875 1.203125l-2.078125 0l-0.359375 -1.640625l1.84375 0q0.296875 0 0.296875 -0.296875l0 -3.71875zm-10.75 -4.15625l0 2.75l4.453125 0l0 -2.75l-4.453125 0zm0 -4.15625l0 2.75l4.453125 0l0 -2.75l-4.453125 0zm5.9375 4.15625l0 2.75l4.8125 0l0 -2.75l-4.8125 0zm0 -4.15625l0 2.75l4.8125 0l0 -2.75l-4.8125 0z" fill-rule="nonzero"></path><path fill="#000000" d="m492.98438 238.4688q-0.0625 1.78125 -0.0625 4.09375q0 2.21875 0.0625 3.484375l-1.625 0l0 -1.109375l-10.3125 0q-0.296875 2.375 -0.75 3.5625q-0.4375 1.1875 -0.96875 2.109375q-0.515625 0.9375 -1.109375 1.75q-0.734375 -0.59375 -1.625 -0.890625q1.484375 -1.5625 2.03125 -2.9375q0.5625 -1.375 0.75 -2.59375q0.1875 -1.234375 0.1875 -2.640625q0 -1.40625 -0.078125 -4.828125l13.5 0zm-1.703125 5.125l0 -3.78125l-10.3125 0l0 3.78125l10.3125 0zm-5.34375 -8.75q0.890625 1.78125 1.265625 2.8125q-0.96875 0.21875 -1.484375 0.515625q-0.515625 -1.546875 -1.1875 -2.734375q0.734375 -0.234375 1.40625 -0.59375z" fill-rule="nonzero"></path><path fill="#000000" d="m511.64062 251.76567q-4.15625 -2.609375 -5.265625 -7.359375q-0.375 5.125 -4.59375 7.578125l-0.828125 -1.5625q4.234375 -2.296875 4.234375 -8.6875l-3.859375 0l0 -1.40625l3.9375 0l0 -5.046875l1.40625 0q0.59375 0.078125 0.078125 0.453125l0 4.59375l5.265625 0l0 1.40625l-4.890625 0q0.734375 5.578125 5.34375 8.171875l-0.828125 1.859375zm-16.09375 -5.9375q2.375 -1.125 3.625 -2.015625l0 -8.453125l1.421875 0q0.59375 0.078125 0.0625 0.4375l0 16.1875l-1.484375 0l0 -6.453125l-2.671875 1.78125q-0.0625 0.515625 -0.359375 0.21875l-0.59375 -1.703125zm1.625 -3.125q-0.4375 -1.78125 -1.40625 -3.5625l1.484375 -0.59375q0.96875 1.5625 1.484375 3.640625l-1.5625 0.515625zm11.65625 -6.453125q1.484375 0.8125 2.078125 2.0l-1.1875 1.1875q-0.75 -1.1875 -2.0 -2.078125l1.109375 -1.109375z" fill-rule="nonzero"></path><path fill="#000000" d="m521.1406 237.6563q0.375 -1.40625 0.453125 -2.75q1.03125 0.375 1.859375 0.453125q-0.375 0.671875 -0.75 2.296875l5.71875 0q1.03125 0 2.375 -0.140625l0 1.546875q-1.40625 -0.0625 -2.453125 -0.0625l-3.046875 0q0.75 1.703125 1.78125 2.640625q1.046875 0.921875 2.0 1.375q0.96875 0.4375 2.53125 0.734375q-0.890625 0.59375 -1.265625 1.484375q-2.296875 -0.96875 -3.40625 -1.890625q-1.109375 -0.9375 -1.859375 -1.96875q-0.734375 -1.046875 -1.1875 -2.375l-1.5625 0q-0.890625 2.0 -2.34375 3.53125q-1.4375 1.515625 -4.328125 3.140625q-0.21875 -0.671875 -1.265625 -1.328125q1.78125 -0.59375 3.59375 -2.0q1.828125 -1.421875 2.71875 -3.34375l-3.34375 0q-1.1875 0 -2.515625 0.0625l0 -1.546875q1.25 0.140625 2.515625 0.140625l3.78125 0zm-0.140625 8.828125q-0.078125 1.421875 -0.078125 2.3125q0 0.8125 0.03125 1.265625q0.046875 0.4375 0.859375 0.4375l3.046875 0q0.59375 0.078125 1.03125 -0.1875q0.453125 -0.265625 0.671875 -1.671875q0.75 0.515625 1.703125 0.75q-0.59375 1.5625 -1.046875 2.03125q-0.4375 0.484375 -1.84375 0.421875l-4.453125 0q-1.328125 -0.15625 -1.453125 -0.859375q-0.109375 -0.703125 -0.109375 -1.75q0 -1.109375 -0.0625 -2.75l1.703125 0zm-3.265625 0.53125q-0.75 2.140625 -1.78125 4.453125q-0.59375 -0.453125 -1.484375 -0.59375q1.328125 -2.234375 1.625 -4.453125q0.890625 0.359375 1.640625 0.59375zm11.125 -1.046875q1.265625 1.703125 2.609375 3.484375q-0.75 0.53125 -1.34375 1.046875q-1.109375 -2.078125 -2.515625 -3.71875q0.734375 -0.296875 1.25 -0.8125zm-7.34375 -4.53125q1.40625 1.125 2.375 2.15625q-0.671875 0.453125 -1.1875 1.046875q-0.8125 -1.125 -2.21875 -2.15625l1.03125 -1.046875zm2.0 3.859375q0.75 1.1875 1.34375 2.453125q-0.59375 0.375 -1.34375 0.75q-0.515625 -1.484375 -1.25 -2.53125q0.65625 -0.21875 1.25 -0.671875z" fill-rule="nonzero"></path><path fill="#000000" d="m549.75 236.76567l0 1.1875l-3.5625 0l0.734375 1.484375l-1.625 0.296875l-0.671875 -1.78125l-1.1875 0q-0.4375 0.75 -1.03125 1.40625l0 0.96875l6.96875 0l0 3.34375l-1.484375 0l0 -2.15625l-12.25 0l0 2.15625l-1.484375 0l0 -3.34375l0.296875 0l-0.953125 -1.1875q2.140625 -1.703125 3.03125 -4.078125l1.5625 0.140625q0.375 0.234375 -0.140625 0.453125q-0.375 0.734375 -0.59375 1.109375l4.15625 0l0 1.1875l-2.3125 0l0.671875 1.484375l-1.625 0.375l-0.53125 -1.859375l-0.953125 0q-0.828125 1.1875 -2.15625 2.375l6.3125 0l0 -0.8125l-0.296875 -0.375q1.921875 -1.859375 2.4375 -4.078125l1.5625 0.140625q0.296875 0.234375 -0.140625 0.453125q-0.296875 0.734375 -0.53125 1.109375l5.796875 0zm-3.1875 5.859375l0 3.859375l-8.25 0l0 0.96875l8.984375 0l0 4.53125l-1.484375 0l0 -0.4375l-7.5 0l0 0.59375l-1.484375 0l0 -9.515625l9.734375 0zm-0.75 6.015625l-7.5 0l0 1.703125l7.5 0l0 -1.703125zm-0.734375 -4.828125l-6.765625 0l0 1.484375l6.765625 0l0 -1.484375zm13.421875 3.796875q-2.890625 1.03125 -5.40625 1.703125q-0.234375 0.59375 -0.453125 0.21875l-0.515625 -1.703125l2.59375 -0.515625l0 -4.09375l-2.0 0l0 -1.40625l2.0 0l0 -3.9375l-2.21875 0l0 -1.40625l5.9375 0l0 1.40625l-2.234375 0l0 3.9375l2.0 0l0 1.40625l-2.0 0l0 3.71875q0.59375 -0.078125 2.15625 -0.59375l0.140625 1.265625zm5.875 -3.5l0 2.15625l4.15625 0l0 1.40625l-4.15625 0l0 2.3125l4.890625 0l0 1.40625l-11.796875 0l0 -1.40625l5.640625 0l0 -2.3125l-4.015625 0l0 -1.40625l4.015625 0l0 -2.15625l-2.671875 0l0 0.96875l-1.265625 0l0 -9.125l9.203125 0l0 8.828125l-1.265625 0l0 -0.671875l-2.734375 0zm2.734375 -3.40625l-2.734375 0l0 2.21875l2.734375 0l0 -2.21875zm0 -3.5625l-2.734375 0l0 2.375l2.734375 0l0 -2.375zm-4.0 2.375l0 -2.375l-2.671875 0l0 2.375l2.671875 0zm0 1.1875l-2.671875 0l0 2.21875l2.671875 0l0 -2.21875z" fill-rule="nonzero"></path><path fill="#000000" fill-opacity="0.0" d="m5.968504 188.89502l948.0629 -1.1968536" fill-rule="nonzero"></path><path stroke="#000000" stroke-width="8.0" stroke-linejoin="round" stroke-linecap="butt" d="m5.968504 188.89502l948.0629 -1.1968536" fill-rule="nonzero"></path><path fill="#cfe2f3" d="m42.97638 115.821526l462.11026 0l0 51.811012l-462.11026 0z" fill-rule="nonzero"></path><path stroke="#000000" stroke-width="1.0" stroke-linejoin="round" stroke-linecap="butt" d="m42.97638 115.821526l462.11026 0l0 51.811012l-462.11026 0z" fill-rule="nonzero"></path><path fill="#000000" d="m98.10133 144.56891q1.03125 -2.015625 1.25 -6.09375l-2.515625 0q0.21875 4.078125 1.265625 6.09375zm2.734375 -6.09375q-0.140625 4.609375 -1.78125 7.421875q1.1875 1.484375 3.34375 2.59375l-0.96875 1.640625q-2.375 -1.5625 -3.328125 -2.96875q-1.71875 1.9375 -5.28125 3.34375l-0.734375 -1.484375q3.859375 -1.5625 5.125 -3.203125q-1.265625 -2.4375 -1.421875 -4.890625q-0.4375 1.109375 -0.890625 1.703125l-1.25 -0.96875q2.21875 -3.265625 2.671875 -8.078125l1.546875 0.359375q0.453125 0.296875 -0.21875 0.453125q-0.21875 1.328125 -0.59375 2.671875l5.046875 0l0 1.40625l-1.265625 0zm-6.890625 -3.5625q-0.453125 1.109375 -1.046875 1.859375l-1.1875 -0.671875q0.59375 -0.96875 1.109375 -2.21875l1.34375 0.65625q0.296875 0.296875 -0.21875 0.375zm-4.75 10.46875q1.03125 0.296875 1.84375 0.671875q0.59375 -0.671875 0.96875 -2.015625l-2.15625 0q-0.296875 0.671875 -0.65625 1.34375zm-1.046875 1.859375l-1.1875 -0.671875q0.75 -1.109375 1.484375 -2.53125l-2.8125 0l0 -1.1875l3.265625 0q0.4375 -0.953125 0.65625 -1.625l1.421875 0.375q0.296875 0.296875 -0.234375 0.359375l-0.4375 0.890625l4.234375 0l0 1.1875l-1.125 0q-0.359375 1.484375 -1.109375 2.53125q0.671875 0.296875 1.40625 0.734375l-0.65625 1.1875q-0.828125 -0.515625 -1.484375 -0.8125q-1.9375 1.9375 -5.203125 2.375l-0.515625 -1.328125q2.890625 -0.296875 4.453125 -1.640625q-0.8125 -0.375 -1.640625 -0.671875l-0.515625 0.828125zm1.484375 -13.953125l1.1875 0q0.59375 0.0625 0.078125 0.4375l0 3.1875l3.78125 0l0 1.1875l-3.109375 0q0.8125 0.96875 2.515625 1.859375l-0.8125 1.265625q-1.265625 -0.75 -2.375 -2.078125l0 1.78125l-1.265625 0l0 -1.40625q-1.1875 1.484375 -3.265625 2.671875l-0.96875 -1.1875q2.3125 -1.1875 3.796875 -2.90625l-3.421875 0l0 -1.1875l3.859375 0l0 -3.625zm-2.078125 3.40625q-0.515625 -1.109375 -1.328125 -1.921875l1.1875 -0.75q0.890625 0.890625 1.328125 1.859375l-1.1875 0.8125zm23.15625 -2.96875l9.71875 0l0 4.671875l-3.328125 0l0 2.15625l4.15625 0l0 1.1875l-4.15625 0l0 2.234375l2.890625 0l0 6.15625l-1.265625 0l0 -0.8125l-4.453125 0l0 1.03125l-1.265625 0l0 -6.375l2.609375 0l0 -2.234375l-3.640625 0l0 1.1875q0 4.96875 -2.15625 7.203125l-1.109375 -1.109375q2.0 -2.015625 2.0 -6.390625l0 -8.90625zm8.015625 11.4375l-4.453125 0l0 2.96875l4.453125 0l0 -2.96875zm-3.109375 -4.609375l0 -2.15625l-3.640625 0l0 2.15625l3.640625 0zm-3.640625 -3.34375l6.96875 0l0 -2.296875l-6.96875 0l0 2.296875zm-1.9375 5.578125l-1.921875 0.65625l0 5.796875q0 1.1875 -1.1875 1.1875l-1.484375 0l-0.21875 -1.40625l1.109375 0q0.296875 0 0.296875 -0.296875l0 -4.828125l-1.5625 0.515625q-0.078125 0.515625 -0.375 0.21875l-0.515625 -1.78125l2.453125 -0.515625l0 -3.859375l-2.078125 0l0 -1.40625l2.078125 0l0 -3.859375l1.40625 0q0.59375 0.078125 0.078125 0.4375l0 3.421875l1.921875 0l0 1.40625l-1.921875 0l0 3.5625l1.78125 -0.515625l0.140625 1.265625z" fill-rule="nonzero"></path><path fill="#000000" d="m123.14821 144.27203l1.6875 -0.140625q0.125 1.015625 0.5625 1.671875q0.4375 0.65625 1.359375 1.0625q0.9375 0.40625 2.09375 0.40625q1.03125 0 1.8125 -0.3125q0.796875 -0.3125 1.1875 -0.84375q0.390625 -0.53125 0.390625 -1.15625q0 -0.640625 -0.375 -1.109375q-0.375 -0.484375 -1.234375 -0.8125q-0.546875 -0.21875 -2.421875 -0.65625q-1.875 -0.453125 -2.625 -0.859375q-0.96875 -0.515625 -1.453125 -1.265625q-0.46875 -0.75 -0.46875 -1.6875q0 -1.03125 0.578125 -1.921875q0.59375 -0.90625 1.703125 -1.359375q1.125 -0.46875 2.5 -0.46875q1.515625 0 2.671875 0.484375q1.15625 0.484375 1.765625 1.4375q0.625 0.9375 0.671875 2.140625l-1.71875 0.125q-0.140625 -1.28125 -0.953125 -1.9375q-0.796875 -0.671875 -2.359375 -0.671875q-1.625 0 -2.375 0.609375q-0.75 0.59375 -0.75 1.4375q0 0.734375 0.53125 1.203125q0.515625 0.46875 2.703125 0.96875q2.203125 0.5 3.015625 0.875q1.1875 0.546875 1.75 1.390625q0.578125 0.828125 0.578125 1.921875q0 1.09375 -0.625 2.0625q-0.625 0.953125 -1.796875 1.484375q-1.15625 0.53125 -2.609375 0.53125q-1.84375 0 -3.09375 -0.53125q-1.25 -0.546875 -1.96875 -1.625q-0.703125 -1.078125 -0.734375 -2.453125zm13.052948 4.375l0 -13.59375l4.6875 0q1.578125 0 2.421875 0.1875q1.15625 0.265625 1.984375 0.96875q1.078125 0.921875 1.609375 2.34375q0.53125 1.40625 0.53125 3.21875q0 1.546875 -0.359375 2.75q-0.359375 1.1875 -0.921875 1.984375q-0.5625 0.78125 -1.234375 1.234375q-0.671875 0.4375 -1.625 0.671875q-0.953125 0.234375 -2.1875 0.234375l-4.90625 0zm1.796875 -1.609375l2.90625 0q1.34375 0 2.109375 -0.25q0.765625 -0.25 1.21875 -0.703125q0.640625 -0.640625 1.0 -1.71875q0.359375 -1.078125 0.359375 -2.625q0 -2.125 -0.703125 -3.265625q-0.703125 -1.15625 -1.703125 -1.546875q-0.71875 -0.28125 -2.328125 -0.28125l-2.859375 0l0 10.390625zm11.597946 1.609375l0 -13.59375l1.796875 0l0 6.734375l6.765625 -6.734375l2.4375 0l-5.703125 5.5l5.953125 8.09375l-2.375 0l-4.84375 -6.890625l-2.234375 2.171875l0 4.71875l-1.796875 0z" fill-rule="nonzero"></path><path fill="#000000" d="m165.02393 137.36578q0.828125 -1.703125 2.75 -3.484375l0.8125 0.734375q-1.84375 1.703125 -2.59375 3.265625q-0.8125 1.703125 -0.8125 4.078125q0 2.015625 0.8125 3.796875q0.75 1.625 2.59375 3.640625l-0.8125 0.8125q-1.859375 -2.078125 -2.75 -3.9375q-0.953125 -2.0 -0.953125 -4.3125q0 -2.59375 0.953125 -4.59375z" fill-rule="nonzero"></path><path fill="#000000" d="m181.3208 143.88141l1.796875 0.453125q-0.5625 2.21875 -2.03125 3.390625q-1.46875 1.15625 -3.59375 1.15625q-2.203125 0 -3.578125 -0.890625q-1.375 -0.90625 -2.09375 -2.59375q-0.71875 -1.703125 -0.71875 -3.65625q0 -2.125 0.796875 -3.703125q0.8125 -1.578125 2.3125 -2.390625q1.5 -0.828125 3.296875 -0.828125q2.046875 0 3.4375 1.046875q1.390625 1.03125 1.9375 2.90625l-1.765625 0.421875q-0.46875 -1.484375 -1.375 -2.15625q-0.90625 -0.6875 -2.265625 -0.6875q-1.5625 0 -2.625 0.75q-1.046875 0.75 -1.484375 2.03125q-0.421875 1.265625 -0.421875 2.609375q0 1.734375 0.5 3.03125q0.515625 1.28125 1.578125 1.921875q1.078125 0.640625 2.3125 0.640625q1.515625 0 2.5625 -0.859375q1.046875 -0.875 1.421875 -2.59375zm2.3010712 5.0l3.9375 -14.0625l1.34375 0l-3.9375 14.0625l-1.34375 0zm16.355179 -5.0l1.796875 0.453125q-0.5625 2.21875 -2.03125 3.390625q-1.46875 1.15625 -3.59375 1.15625q-2.203125 0 -3.578125 -0.890625q-1.375 -0.90625 -2.09375 -2.59375q-0.71875 -1.703125 -0.71875 -3.65625q0 -2.125 0.796875 -3.703125q0.8125 -1.578125 2.3125 -2.390625q1.5 -0.828125 3.296875 -0.828125q2.046875 0 3.4375 1.046875q1.390625 1.03125 1.9375 2.90625l-1.765625 0.421875q-0.46875 -1.484375 -1.375 -2.15625q-0.90625 -0.6875 -2.265625 -0.6875q-1.5625 0 -2.625 0.75q-1.046875 0.75 -1.484375 2.03125q-0.421875 1.265625 -0.421875 2.609375q0 1.734375 0.5 3.03125q0.515625 1.28125 1.578125 1.921875q1.078125 0.640625 2.3125 0.640625q1.515625 0 2.5625 -0.859375q1.046875 -0.875 1.421875 -2.59375zm7.066696 2.5625l0 -3.71875l-3.703125 0l0 -1.5625l3.703125 0l0 -3.703125l1.578125 0l0 3.703125l3.6875 0l0 1.5625l-3.6875 0l0 3.71875l-1.578125 0zm10.8949585 0l0 -3.71875l-3.703125 0l0 -1.5625l3.703125 0l0 -3.703125l1.578125 0l0 3.703125l3.6875 0l0 1.5625l-3.6875 0l0 3.71875l-1.578125 0zm6.1293335 2.4375l3.9375 -14.0625l1.34375 0l-3.9375 14.0625l-1.34375 0zm5.730179 -4.09375l1.625 -0.21875q0.0625 1.546875 0.578125 2.125q0.53125 0.578125 1.4375 0.578125q0.6875 0 1.171875 -0.3125q0.5 -0.3125 0.671875 -0.84375q0.1875 -0.53125 0.1875 -1.703125l0 -9.359375l1.8125 0l0 9.265625q0 1.703125 -0.421875 2.640625q-0.40625 0.9375 -1.3125 1.4375q-0.890625 0.484375 -2.09375 0.484375q-1.796875 0 -2.75 -1.03125q-0.9375 -1.03125 -0.90625 -3.0625zm16.46875 2.640625q-0.9375 0.796875 -1.796875 1.125q-0.859375 0.3125 -1.84375 0.3125q-1.609375 0 -2.484375 -0.78125q-0.875 -0.796875 -0.875 -2.03125q0 -0.734375 0.328125 -1.328125q0.328125 -0.59375 0.859375 -0.953125q0.53125 -0.359375 1.203125 -0.546875q0.5 -0.140625 1.484375 -0.25q2.03125 -0.25 2.984375 -0.578125q0 -0.34375 0 -0.4375q0 -1.015625 -0.46875 -1.4375q-0.640625 -0.5625 -1.90625 -0.5625q-1.171875 0 -1.734375 0.40625q-0.5625 0.40625 -0.828125 1.46875l-1.640625 -0.234375q0.234375 -1.046875 0.734375 -1.6875q0.515625 -0.640625 1.46875 -0.984375q0.96875 -0.359375 2.25 -0.359375q1.265625 0 2.046875 0.296875q0.78125 0.296875 1.15625 0.75q0.375 0.453125 0.515625 1.140625q0.09375 0.421875 0.09375 1.53125l0 2.234375q0 2.328125 0.09375 2.953125q0.109375 0.609375 0.4375 1.171875l-1.75 0q-0.265625 -0.515625 -0.328125 -1.21875zm-0.140625 -3.71875q-0.90625 0.359375 -2.734375 0.625q-1.03125 0.140625 -1.453125 0.328125q-0.421875 0.1875 -0.65625 0.546875q-0.234375 0.359375 -0.234375 0.796875q0 0.671875 0.5 1.125q0.515625 0.4375 1.484375 0.4375q0.96875 0 1.71875 -0.421875q0.75 -0.4375 1.109375 -1.15625q0.265625 -0.578125 0.265625 -1.671875l0 -0.609375zm6.813217 4.9375l-3.75 -9.859375l1.765625 0l2.125 5.90625q0.34375 0.953125 0.625 1.984375q0.21875 -0.78125 0.625 -1.875l2.1874847 -6.015625l1.71875 0l-3.7343597 9.859375l-1.5625 0zm13.031235 -1.21875q-0.9375 0.796875 -1.796875 1.125q-0.859375 0.3125 -1.84375 0.3125q-1.609375 0 -2.484375 -0.78125q-0.875 -0.796875 -0.875 -2.03125q0 -0.734375 0.328125 -1.328125q0.328125 -0.59375 0.859375 -0.953125q0.53125 -0.359375 1.203125 -0.546875q0.5 -0.140625 1.484375 -0.25q2.03125 -0.25 2.984375 -0.578125q0 -0.34375 0 -0.4375q0 -1.015625 -0.46875 -1.4375q-0.640625 -0.5625 -1.90625 -0.5625q-1.171875 0 -1.734375 0.40625q-0.5625 0.40625 -0.828125 1.46875l-1.640625 -0.234375q0.234375 -1.046875 0.734375 -1.6875q0.515625 -0.640625 1.46875 -0.984375q0.96875 -0.359375 2.25 -0.359375q1.265625 0 2.046875 0.296875q0.78125 0.296875 1.15625 0.75q0.375 0.453125 0.515625 1.140625q0.09375 0.421875 0.09375 1.53125l0 2.234375q0 2.328125 0.09375 2.953125q0.109375 0.609375 0.4375 1.171875l-1.75 0q-0.265625 -0.515625 -0.328125 -1.21875zm-0.140625 -3.71875q-0.90625 0.359375 -2.734375 0.625q-1.03125 0.140625 -1.453125 0.328125q-0.421875 0.1875 -0.65625 0.546875q-0.234375 0.359375 -0.234375 0.796875q0 0.671875 0.5 1.125q0.515625 0.4375 1.484375 0.4375q0.96875 0 1.71875 -0.421875q0.75 -0.4375 1.109375 -1.15625q0.265625 -0.578125 0.265625 -1.671875l0 -0.609375zm2.8288574 5.171875l3.9375 -14.0625l1.34375 0l-3.9375 14.0625l-1.34375 0zm5.7301636 -4.09375l1.625 -0.21875q0.0625 1.546875 0.578125 2.125q0.53125 0.578125 1.4375 0.578125q0.6875 0 1.171875 -0.3125q0.5 -0.3125 0.671875 -0.84375q0.1875 -0.53125 0.1875 -1.703125l0 -9.359375l1.8125 0l0 9.265625q0 1.703125 -0.421875 2.640625q-0.40625 0.9375 -1.3125 1.4375q-0.890625 0.484375 -2.09375 0.484375q-1.796875 0 -2.75 -1.03125q-0.9375 -1.03125 -0.90625 -3.0625zm16.46875 2.640625q-0.9375 0.796875 -1.796875 1.125q-0.859375 0.3125 -1.84375 0.3125q-1.609375 0 -2.484375 -0.78125q-0.875 -0.796875 -0.875 -2.03125q0 -0.734375 0.328125 -1.328125q0.328125 -0.59375 0.859375 -0.953125q0.53125 -0.359375 1.203125 -0.546875q0.5 -0.140625 1.484375 -0.25q2.03125 -0.25 2.984375 -0.578125q0 -0.34375 0 -0.4375q0 -1.015625 -0.46875 -1.4375q-0.640625 -0.5625 -1.90625 -0.5625q-1.171875 0 -1.734375 0.40625q-0.5625 0.40625 -0.828125 1.46875l-1.640625 -0.234375q0.234375 -1.046875 0.734375 -1.6875q0.515625 -0.640625 1.46875 -0.984375q0.96875 -0.359375 2.25 -0.359375q1.265625 0 2.046875 0.296875q0.78125 0.296875 1.15625 0.75q0.375 0.453125 0.515625 1.140625q0.09375 0.421875 0.09375 1.53125l0 2.234375q0 2.328125 0.09375 2.953125q0.109375 0.609375 0.4375 1.171875l-1.75 0q-0.265625 -0.515625 -0.328125 -1.21875zm-0.140625 -3.71875q-0.90625 0.359375 -2.734375 0.625q-1.03125 0.140625 -1.453125 0.328125q-0.421875 0.1875 -0.65625 0.546875q-0.234375 0.359375 -0.234375 0.796875q0 0.671875 0.5 1.125q0.515625 0.4375 1.484375 0.4375q0.96875 0 1.71875 -0.421875q0.75 -0.4375 1.109375 -1.15625q0.265625 -0.578125 0.265625 -1.671875l0 -0.609375zm6.8132324 4.9375l-3.75 -9.859375l1.765625 0l2.125 5.90625q0.34375 0.953125 0.625 1.984375q0.21875 -0.78125 0.625 -1.875l2.1875 -6.015625l1.71875 0l-3.734375 9.859375l-1.5625 0zm13.03125 -1.21875q-0.9375 0.796875 -1.796875 1.125q-0.859375 0.3125 -1.84375 0.3125q-1.609375 0 -2.484375 -0.78125q-0.875 -0.796875 -0.875 -2.03125q0 -0.734375 0.328125 -1.328125q0.328125 -0.59375 0.859375 -0.953125q0.53125 -0.359375 1.203125 -0.546875q0.5 -0.140625 1.484375 -0.25q2.03125 -0.25 2.984375 -0.578125q0 -0.34375 0 -0.4375q0 -1.015625 -0.46875 -1.4375q-0.640625 -0.5625 -1.90625 -0.5625q-1.171875 0 -1.734375 0.40625q-0.5625 0.40625 -0.828125 1.46875l-1.640625 -0.234375q0.234375 -1.046875 0.734375 -1.6875q0.515625 -0.640625 1.46875 -0.984375q0.96875 -0.359375 2.25 -0.359375q1.265625 0 2.046875 0.296875q0.78125 0.296875 1.15625 0.75q0.375 0.453125 0.515625 1.140625q0.09375 0.421875 0.09375 1.53125l0 2.234375q0 2.328125 0.09375 2.953125q0.109375 0.609375 0.4375 1.171875l-1.75 0q-0.265625 -0.515625 -0.328125 -1.21875zm-0.140625 -3.71875q-0.90625 0.359375 -2.734375 0.625q-1.03125 0.140625 -1.453125 0.328125q-0.421875 0.1875 -0.65625 0.546875q-0.234375 0.359375 -0.234375 0.796875q0 0.671875 0.5 1.125q0.515625 0.4375 1.484375 0.4375q0.96875 0 1.71875 -0.421875q0.75 -0.4375 1.109375 -1.15625q0.265625 -0.578125 0.265625 -1.671875l0 -0.609375zm3.688202 0.5625l1.6875 -0.140625q0.125 1.015625 0.5625 1.671875q0.4375 0.65625 1.359375 1.0625q0.9375 0.40625 2.09375 0.40625q1.03125 0 1.8125 -0.3125q0.796875 -0.3125 1.1875 -0.84375q0.390625 -0.53125 0.390625 -1.15625q0 -0.640625 -0.375 -1.109375q-0.375 -0.484375 -1.234375 -0.8125q-0.546875 -0.21875 -2.421875 -0.65625q-1.875 -0.453125 -2.625 -0.859375q-0.96875 -0.515625 -1.453125 -1.265625q-0.46875 -0.75 -0.46875 -1.6875q0 -1.03125 0.578125 -1.921875q0.59375 -0.90625 1.703125 -1.359375q1.125 -0.46875 2.5 -0.46875q1.515625 0 2.671875 0.484375q1.15625 0.484375 1.765625 1.4375q0.625 0.9375 0.671875 2.140625l-1.71875 0.125q-0.140625 -1.28125 -0.953125 -1.9375q-0.796875 -0.671875 -2.359375 -0.671875q-1.625 0 -2.375 0.609375q-0.75 0.59375 -0.75 1.4375q0 0.734375 0.53125 1.203125q0.515625 0.46875 2.703125 0.96875q2.203125 0.5 3.015625 0.875q1.1875 0.546875 1.75 1.390625q0.578125 0.828125 0.578125 1.921875q0 1.09375 -0.625 2.0625q-0.625 0.953125 -1.796875 1.484375q-1.15625 0.53125 -2.609375 0.53125q-1.84375 0 -3.09375 -0.53125q-1.25 -0.546875 -1.96875 -1.625q-0.703125 -1.078125 -0.734375 -2.453125zm19.271729 0.765625l1.640625 0.21875q-0.265625 1.6875 -1.375 2.65625q-1.109375 0.953125 -2.734375 0.953125q-2.015625 0 -3.25 -1.3125q-1.21875 -1.328125 -1.21875 -3.796875q0 -1.59375 0.515625 -2.78125q0.53125 -1.203125 1.609375 -1.796875q1.09375 -0.609375 2.359375 -0.609375q1.609375 0 2.625 0.8125q1.015625 0.8125 1.3125 2.3125l-1.625 0.25q-0.234375 -1.0 -0.828125 -1.5q-0.59375 -0.5 -1.421875 -0.5q-1.265625 0 -2.0625 0.90625q-0.78125 0.90625 -0.78125 2.859375q0 1.984375 0.765625 2.890625q0.765625 0.890625 1.984375 0.890625q0.984375 0 1.640625 -0.59375q0.65625 -0.609375 0.84375 -1.859375zm2.875 3.609375l0 -9.859375l1.5 0l0 1.5q0.578125 -1.046875 1.0625 -1.375q0.484375 -0.34375 1.078125 -0.34375q0.84375 0 1.71875 0.546875l-0.578125 1.546875q-0.609375 -0.359375 -1.234375 -0.359375q-0.546875 0 -0.984375 0.328125q-0.421875 0.328125 -0.609375 0.90625q-0.28125 0.890625 -0.28125 1.953125l0 5.15625l-1.671875 0zm6.2438965 -11.6875l0 -1.90625l1.671875 0l0 1.90625l-1.671875 0zm0 11.6875l0 -9.859375l1.671875 0l0 9.859375l-1.671875 0zm4.1292114 3.78125l0 -13.640625l1.53125 0l0 1.28125q0.53125 -0.75 1.203125 -1.125q0.6875 -0.375 1.640625 -0.375q1.265625 0 2.234375 0.65625q0.96875 0.640625 1.453125 1.828125q0.5 1.1875 0.5 2.59375q0 1.515625 -0.546875 2.734375q-0.546875 1.203125 -1.578125 1.84375q-1.03125 0.640625 -2.171875 0.640625q-0.84375 0 -1.515625 -0.34375q-0.65625 -0.359375 -1.078125 -0.890625l0 4.796875l-1.671875 0zm1.515625 -8.65625q0 1.90625 0.765625 2.8125q0.78125 0.90625 1.875 0.90625q1.109375 0 1.890625 -0.9375q0.796875 -0.9375 0.796875 -2.921875q0 -1.875 -0.78125 -2.8125q-0.765625 -0.9375 -1.84375 -0.9375q-1.0625 0 -1.890625 1.0q-0.8125 1.0 -0.8125 2.890625zm12.516357 3.375l0.234375 1.484375q-0.703125 0.140625 -1.265625 0.140625q-0.90625 0 -1.40625 -0.28125q-0.5 -0.296875 -0.703125 -0.75q-0.203125 -0.46875 -0.203125 -1.984375l0 -5.65625l-1.234375 0l0 -1.3125l1.234375 0l0 -2.4375l1.65625 -1.0l0 3.4375l1.6875 0l0 1.3125l-1.6875 0l0 5.75q0 0.71875 0.078125 0.921875q0.09375 0.203125 0.296875 0.328125q0.203125 0.125 0.578125 0.125q0.265625 0 0.734375 -0.078125zm0.27703857 1.734375l3.9375 -14.0625l1.34375 0l-3.9375 14.0625l-1.34375 0zm13.011414 -5.5625l0 -1.609375l5.765625 0l0 5.046875q-1.328125 1.0625 -2.75 1.59375q-1.40625 0.53125 -2.890625 0.53125q-2.0 0 -3.640625 -0.859375q-1.625 -0.859375 -2.46875 -2.484375q-0.828125 -1.625 -0.828125 -3.625q0 -1.984375 0.828125 -3.703125q0.828125 -1.71875 2.390625 -2.546875q1.5625 -0.84375 3.59375 -0.84375q1.46875 0 2.65625 0.484375q1.203125 0.46875 1.875 1.328125q0.671875 0.84375 1.03125 2.21875l-1.625 0.4375q-0.3125 -1.03125 -0.765625 -1.625q-0.453125 -0.59375 -1.296875 -0.953125q-0.84375 -0.359375 -1.875 -0.359375q-1.234375 0 -2.140625 0.375q-0.890625 0.375 -1.453125 1.0q-0.546875 0.609375 -0.84375 1.34375q-0.53125 1.25 -0.53125 2.734375q0 1.8125 0.625 3.046875q0.640625 1.21875 1.828125 1.8125q1.203125 0.59375 2.546875 0.59375q1.171875 0 2.28125 -0.453125q1.109375 -0.453125 1.6875 -0.953125l0 -2.53125l-4.0 0zm7.308319 0.40625q0 -2.734375 1.53125 -4.0625q1.265625 -1.09375 3.09375 -1.09375q2.03125 0 3.3125 1.34375q1.296875 1.328125 1.296875 3.671875q0 1.90625 -0.578125 3.0q-0.5625 1.078125 -1.65625 1.6875q-1.078125 0.59375 -2.375 0.59375q-2.0625 0 -3.34375 -1.328125q-1.28125 -1.328125 -1.28125 -3.8125zm1.71875 0q0 1.890625 0.828125 2.828125q0.828125 0.9375 2.078125 0.9375q1.25 0 2.0625 -0.9375q0.828125 -0.953125 0.828125 -2.890625q0 -1.828125 -0.828125 -2.765625q-0.828125 -0.9375 -2.0625 -0.9375q-1.25 0 -2.078125 0.9375q-0.828125 0.9375 -0.828125 2.828125zm8.031952 5.15625l3.9375 -14.0625l1.34375 0l-3.9375 14.0625l-1.34375 0zm6.652069 -0.234375l0 -13.59375l5.125 0q1.359375 0 2.078125 0.125q1.0 0.171875 1.671875 0.640625q0.671875 0.46875 1.078125 1.3125q0.421875 0.84375 0.421875 1.84375q0 1.734375 -1.109375 2.9375q-1.09375 1.203125 -3.984375 1.203125l-3.484375 0l0 5.53125l-1.796875 0zm1.796875 -7.140625l3.515625 0q1.75 0 2.46875 -0.640625q0.734375 -0.65625 0.734375 -1.828125q0 -0.859375 -0.4375 -1.46875q-0.421875 -0.609375 -1.125 -0.796875q-0.453125 -0.125 -1.671875 -0.125l-3.484375 0l0 4.859375zm10.349823 10.9375l-0.171875 -1.5625q0.546875 0.140625 0.953125 0.140625q0.546875 0 0.875 -0.1875q0.34375 -0.1875 0.5625 -0.515625q0.15625 -0.25 0.5 -1.25q0.046875 -0.140625 0.15625 -0.40625l-3.734375 -9.875l1.796875 0l2.046875 5.71875q0.40625 1.078125 0.71875 2.28125q0.28125 -1.15625 0.6875 -2.25l2.09375 -5.75l1.671875 0l-3.75 10.03125q-0.59375 1.625 -0.9375 2.234375q-0.4375 0.828125 -1.015625 1.203125q-0.578125 0.390625 -1.375 0.390625q-0.484375 0 -1.078125 -0.203125zm13.0625 -5.296875l0.234375 1.484375q-0.703125 0.140625 -1.265625 0.140625q-0.90625 0 -1.40625 -0.28125q-0.5 -0.296875 -0.703125 -0.75q-0.203125 -0.46875 -0.203125 -1.984375l0 -5.65625l-1.234375 0l0 -1.3125l1.234375 0l0 -2.4375l1.65625 -1.0l0 3.4375l1.6875 0l0 1.3125l-1.6875 0l0 5.75q0 0.71875 0.078125 0.921875q0.09375 0.203125 0.296875 0.328125q0.203125 0.125 0.578125 0.125q0.265625 0 0.734375 -0.078125zm1.5270386 1.5l0 -13.59375l1.671875 0l0 4.875q1.171875 -1.359375 2.953125 -1.359375q1.09375 0 1.890625 0.4375q0.8125 0.421875 1.15625 1.1875q0.359375 0.765625 0.359375 2.203125l0 6.25l-1.671875 0l0 -6.25q0 -1.25 -0.546875 -1.8125q-0.546875 -0.578125 -1.53125 -0.578125q-0.75 0 -1.40625 0.390625q-0.640625 0.375 -0.921875 1.046875q-0.28125 0.65625 -0.28125 1.8125l0 5.390625l-1.671875 0zm9.750732 -4.921875q0 -2.734375 1.53125 -4.0625q1.265625 -1.09375 3.09375 -1.09375q2.03125 0 3.3125 1.34375q1.296875 1.328125 1.296875 3.671875q0 1.90625 -0.578125 3.0q-0.5625 1.078125 -1.65625 1.6875q-1.078125 0.59375 -2.375 0.59375q-2.0625 0 -3.34375 -1.328125q-1.28125 -1.328125 -1.28125 -3.8125zm1.71875 0q0 1.890625 0.828125 2.828125q0.828125 0.9375 2.078125 0.9375q1.25 0 2.0625 -0.9375q0.828125 -0.953125 0.828125 -2.890625q0 -1.828125 -0.828125 -2.765625q-0.828125 -0.9375 -2.0625 -0.9375q-1.25 0 -2.078125 0.9375q-0.828125 0.9375 -0.828125 2.828125zm9.281982 4.921875l0 -9.859375l1.5 0l0 1.40625q1.09375 -1.625 3.140625 -1.625q0.890625 0 1.640625 0.328125q0.75 0.3125 1.109375 0.84375q0.375 0.515625 0.53125 1.21875q0.09375 0.46875 0.09375 1.625l0 6.0625l-1.671875 0l0 -6.0q0 -1.015625 -0.203125 -1.515625q-0.1875 -0.515625 -0.6875 -0.8125q-0.5 -0.296875 -1.171875 -0.296875q-1.0625 0 -1.84375 0.671875q-0.765625 0.671875 -0.765625 2.578125l0 5.375l-1.671875 0z" fill-rule="nonzero"></path><path fill="#000000" d="m459.32104 146.27203q-0.890625 1.859375 -2.75 3.9375l-0.8125 -0.8125q1.859375 -2.015625 2.59375 -3.640625q0.828125 -1.78125 0.828125 -3.796875q0 -2.375 -0.828125 -4.078125q-0.734375 -1.5625 -2.59375 -3.265625l0.8125 -0.734375q1.9375 1.78125 2.75 3.484375q0.96875 2.0 0.96875 4.59375q0 2.3125 -0.96875 4.3125z" fill-rule="nonzero"></path><path fill="#d0e0e3" d="m464.9134 115.83202l462.11023 0l0 51.811028l-462.11023 0z" fill-rule="nonzero"></path><path stroke="#000000" stroke-width="1.0" stroke-linejoin="round" stroke-linecap="butt" d="m464.9134 115.83202l462.11023 0l0 51.811028l-462.11023 0z" fill-rule="nonzero"></path><path fill="#000000" d="m577.54474 133.8919q-0.078125 1.84375 -0.078125 4.078125l0 7.9375q0 2.296875 0.078125 4.53125l-1.484375 0l0 -0.96875l-12.390625 0l0 1.125l-1.484375 0q0.078125 -2.3125 0.078125 -4.765625l0 -7.859375q0 -2.15625 -0.078125 -4.078125l15.359375 0zm-1.484375 14.3125l0 -13.125l-12.390625 0l0 13.125l12.390625 0zm-6.15625 -12.171875q-0.453125 0.453125 -0.8125 0.96875l4.96875 0q-0.296875 0.671875 -0.96875 1.640625q-0.671875 0.953125 -2.078125 2.296875q2.234375 1.109375 4.375 1.328125q-0.515625 0.671875 -0.890625 1.421875q-2.734375 -0.828125 -4.59375 -2.015625q-2.15625 1.421875 -4.609375 2.078125q-0.21875 -0.65625 -0.8125 -1.25q2.375 -0.375 4.375 -1.5625q-1.03125 -0.96875 -1.484375 -1.640625q-0.65625 0.75 -1.40625 1.484375q-0.515625 -0.59375 -1.109375 -0.890625q1.265625 -1.03125 2.15625 -2.328125q0.890625 -1.296875 1.25 -2.1875q0.75 0.359375 1.640625 0.65625zm-2.296875 8.84375q3.265625 0.953125 4.890625 1.625q-0.375 0.59375 -0.734375 1.265625q-3.046875 -1.265625 -4.6875 -1.640625q0.296875 -0.59375 0.53125 -1.25zm1.40625 -2.3125q2.515625 1.046875 3.40625 1.34375q-0.359375 0.59375 -0.65625 1.328125q-2.53125 -1.1875 -3.421875 -1.484375q0.375 -0.515625 0.671875 -1.1875zm-0.890625 -4.15625q1.109375 1.265625 1.921875 1.78125q0.96875 -0.734375 1.78125 -2.0l-3.5625 0l-0.140625 0.21875z" fill-rule="nonzero"></path><path fill="#000000" d="m592.2635 145.90753q1.1875 1.484375 4.453125 2.671875l-0.734375 1.640625q-5.796875 -1.9375 -7.34375 -8.171875l-0.453125 0q-0.734375 1.046875 -1.5625 1.859375l0 4.15625l4.234375 -0.8125l0.21875 1.25q-4.0 0.96875 -7.859375 1.71875q-0.21875 0.671875 -0.453125 0.21875l-0.515625 -1.78125l2.890625 -0.375l0 -3.1875q-1.921875 1.328125 -4.296875 2.15625l-0.75 -1.484375q3.71875 -1.046875 6.3125 -3.71875l-5.9375 0l0 -1.40625l7.203125 0l0 -1.34375l-5.34375 0l0 -1.40625l5.34375 0l0 -1.328125l-6.3125 0l0 -1.421875l6.3125 0l0 -1.78125l1.40625 0q0.59375 0.078125 0.078125 0.453125l0 1.328125l6.3125 0l0 1.421875l-6.3125 0l0 1.328125l5.34375 0l0 1.40625l-5.34375 0l0 1.34375l7.203125 0l0 1.40625l-6.3125 0q0.4375 1.40625 1.484375 2.96875q1.40625 -1.1875 2.671875 -2.59375l1.109375 1.109375q0.078125 0.375 -0.375 0.21875q-1.25 1.1875 -2.671875 2.15625z" fill-rule="nonzero"></path><path fill="#000000" d="m598.8416 144.28253l1.6875 -0.140625q0.125 1.015625 0.5625 1.671875q0.4375 0.65625 1.359375 1.0625q0.9375 0.40625 2.09375 0.40625q1.03125 0 1.8125 -0.3125q0.796875 -0.3125 1.1875 -0.84375q0.390625 -0.53125 0.390625 -1.15625q0 -0.640625 -0.375 -1.109375q-0.375 -0.484375 -1.234375 -0.8125q-0.546875 -0.21875 -2.421875 -0.65625q-1.875 -0.453125 -2.625 -0.859375q-0.96875 -0.515625 -1.453125 -1.265625q-0.46875 -0.75 -0.46875 -1.6875q0 -1.03125 0.578125 -1.921875q0.59375 -0.90625 1.703125 -1.359375q1.125 -0.46875 2.5 -0.46875q1.515625 0 2.671875 0.484375q1.15625 0.484375 1.765625 1.4375q0.625 0.9375 0.671875 2.140625l-1.71875 0.125q-0.140625 -1.28125 -0.953125 -1.9375q-0.796875 -0.671875 -2.359375 -0.671875q-1.625 0 -2.375 0.609375q-0.75 0.59375 -0.75 1.4375q0 0.734375 0.53125 1.203125q0.515625 0.46875 2.703125 0.96875q2.203125 0.5 3.015625 0.875q1.1875 0.546875 1.75 1.390625q0.578125 0.828125 0.578125 1.921875q0 1.09375 -0.625 2.0625q-0.625 0.953125 -1.796875 1.484375q-1.15625 0.53125 -2.609375 0.53125q-1.84375 0 -3.09375 -0.53125q-1.25 -0.546875 -1.96875 -1.625q-0.703125 -1.078125 -0.734375 -2.453125zm13.0529175 4.375l0 -13.59375l4.6875 0q1.578125 0 2.421875 0.1875q1.15625 0.265625 1.984375 0.96875q1.078125 0.921875 1.609375 2.34375q0.53125 1.40625 0.53125 3.21875q0 1.546875 -0.359375 2.75q-0.359375 1.1875 -0.921875 1.984375q-0.5625 0.78125 -1.234375 1.234375q-0.671875 0.4375 -1.625 0.671875q-0.953125 0.234375 -2.1875 0.234375l-4.90625 0zm1.796875 -1.609375l2.90625 0q1.34375 0 2.109375 -0.25q0.765625 -0.25 1.21875 -0.703125q0.640625 -0.640625 1.0 -1.71875q0.359375 -1.078125 0.359375 -2.625q0 -2.125 -0.703125 -3.265625q-0.703125 -1.15625 -1.703125 -1.546875q-0.71875 -0.28125 -2.328125 -0.28125l-2.859375 0l0 10.390625zm11.597961 1.609375l0 -13.59375l1.796875 0l0 6.734375l6.765625 -6.734375l2.4375 0l-5.703125 5.5l5.953125 8.09375l-2.375 0l-4.84375 -6.890625l-2.234375 2.171875l0 4.71875l-1.796875 0z" fill-rule="nonzero"></path><path fill="#000000" d="m640.7173 137.37628q0.828125 -1.703125 2.75 -3.484375l0.8125 0.734375q-1.84375 1.703125 -2.59375 3.265625q-0.8125 1.703125 -0.8125 4.078125q0 2.015625 0.8125 3.796875q0.75 1.625 2.59375 3.640625l-0.8125 0.8125q-1.859375 -2.078125 -2.75 -3.9375q-0.953125 -2.0 -0.953125 -4.3125q0 -2.59375 0.953125 -4.59375z" fill-rule="nonzero"></path><path fill="#000000" d="m647.6079 148.65753l0 -13.59375l1.8125 0l0 13.59375l-1.8125 0zm4.3395996 -6.625q0 -3.390625 1.8125 -5.296875q1.828125 -1.921875 4.703125 -1.921875q1.875 0 3.390625 0.90625q1.515625 0.890625 2.296875 2.5q0.796875 1.609375 0.796875 3.65625q0 2.0625 -0.84375 3.703125q-0.828125 1.625 -2.359375 2.46875q-1.53125 0.84375 -3.296875 0.84375q-1.921875 0 -3.4375 -0.921875q-1.5 -0.9375 -2.28125 -2.53125q-0.78125 -1.609375 -0.78125 -3.40625zm1.859375 0.03125q0 2.453125 1.3125 3.875q1.328125 1.40625 3.3125 1.40625q2.03125 0 3.34375 -1.421875q1.3125 -1.4375 1.3125 -4.0625q0 -1.65625 -0.5625 -2.890625q-0.546875 -1.234375 -1.640625 -1.921875q-1.078125 -0.6875 -2.421875 -0.6875q-1.90625 0 -3.28125 1.3125q-1.375 1.3125 -1.375 4.390625zm12.589539 2.21875l1.6875 -0.140625q0.125 1.015625 0.5625 1.671875q0.4375 0.65625 1.359375 1.0625q0.9375 0.40625 2.09375 0.40625q1.03125 0 1.8125 -0.3125q0.796875 -0.3125 1.1875 -0.84375q0.390625 -0.53125 0.390625 -1.15625q0 -0.640625 -0.375 -1.109375q-0.375 -0.484375 -1.234375 -0.8125q-0.546875 -0.21875 -2.421875 -0.65625q-1.875 -0.453125 -2.625 -0.859375q-0.96875 -0.515625 -1.453125 -1.265625q-0.46875 -0.75 -0.46875 -1.6875q0 -1.03125 0.578125 -1.921875q0.59375 -0.90625 1.703125 -1.359375q1.125 -0.46875 2.5 -0.46875q1.515625 0 2.671875 0.484375q1.15625 0.484375 1.765625 1.4375q0.625 0.9375 0.671875 2.140625l-1.71875 0.125q-0.140625 -1.28125 -0.953125 -1.9375q-0.796875 -0.671875 -2.359375 -0.671875q-1.625 0 -2.375 0.609375q-0.75 0.59375 -0.75 1.4375q0 0.734375 0.53125 1.203125q0.515625 0.46875 2.703125 0.96875q2.203125 0.5 3.015625 0.875q1.1875 0.546875 1.75 1.390625q0.578125 0.828125 0.578125 1.921875q0 1.09375 -0.625 2.0625q-0.625 0.953125 -1.796875 1.484375q-1.15625 0.53125 -2.609375 0.53125q-1.84375 0 -3.09375 -0.53125q-1.25 -0.546875 -1.96875 -1.625q-0.703125 -1.078125 -0.734375 -2.453125zm11.5841675 4.609375l3.9375 -14.0625l1.34375 0l-3.9375 14.0625l-1.34375 0zm5.1520996 -0.234375l5.234375 -13.59375l1.9375 0l5.5625 13.59375l-2.046875 0l-1.59375 -4.125l-5.6875 0l-1.484375 4.125l-1.921875 0zm3.921875 -5.578125l4.609375 0l-1.40625 -3.78125q-0.65625 -1.703125 -0.96875 -2.8125q-0.265625 1.3125 -0.734375 2.59375l-1.5 4.0zm9.8029175 5.578125l0 -9.859375l1.5 0l0 1.40625q1.09375 -1.625 3.140625 -1.625q0.890625 0 1.640625 0.328125q0.75 0.3125 1.109375 0.84375q0.375 0.515625 0.53125 1.21875q0.09375 0.46875 0.09375 1.625l0 6.0625l-1.671875 0l0 -6.0q0 -1.015625 -0.203125 -1.515625q-0.1875 -0.515625 -0.6875 -0.8125q-0.5 -0.296875 -1.171875 -0.296875q-1.0625 0 -1.84375 0.671875q-0.765625 0.671875 -0.765625 2.578125l0 5.375l-1.671875 0zm16.766357 0l0 -1.25q-0.9375 1.46875 -2.75 1.46875q-1.171875 0 -2.171875 -0.640625q-0.984375 -0.65625 -1.53125 -1.8125q-0.53125 -1.171875 -0.53125 -2.6875q0 -1.46875 0.484375 -2.671875q0.5 -1.203125 1.46875 -1.84375q0.984375 -0.640625 2.203125 -0.640625q0.890625 0 1.578125 0.375q0.703125 0.375 1.140625 0.984375l0 -4.875l1.65625 0l0 13.59375l-1.546875 0zm-5.28125 -4.921875q0 1.890625 0.796875 2.828125q0.8125 0.9375 1.890625 0.9375q1.09375 0 1.859375 -0.890625q0.765625 -0.890625 0.765625 -2.734375q0 -2.015625 -0.78125 -2.953125q-0.78125 -0.953125 -1.921875 -0.953125q-1.109375 0 -1.859375 0.90625q-0.75 0.90625 -0.75 2.859375zm9.250732 4.921875l0 -9.859375l1.5 0l0 1.5q0.578125 -1.046875 1.0625 -1.375q0.484375 -0.34375 1.078125 -0.34375q0.84375 0 1.71875 0.546875l-0.578125 1.546875q-0.609375 -0.359375 -1.234375 -0.359375q-0.546875 0 -0.984375 0.328125q-0.421875 0.328125 -0.609375 0.90625q-0.28125 0.890625 -0.28125 1.953125l0 5.15625l-1.671875 0zm5.6032715 -4.921875q0 -2.734375 1.53125 -4.0625q1.265625 -1.09375 3.09375 -1.09375q2.03125 0 3.3125 1.34375q1.296875 1.328125 1.296875 3.671875q0 1.90625 -0.578125 3.0q-0.5625 1.078125 -1.65625 1.6875q-1.078125 0.59375 -2.375 0.59375q-2.0625 0 -3.34375 -1.328125q-1.28125 -1.328125 -1.28125 -3.8125zm1.71875 0q0 1.890625 0.828125 2.828125q0.828125 0.9375 2.078125 0.9375q1.25 0 2.0625 -0.9375q0.828125 -0.953125 0.828125 -2.890625q0 -1.828125 -0.828125 -2.765625q-0.828125 -0.9375 -2.0625 -0.9375q-1.25 0 -2.078125 0.9375q-0.828125 0.9375 -0.828125 2.828125zm9.297607 -6.765625l0 -1.90625l1.671875 0l0 1.90625l-1.671875 0zm0 11.6875l0 -9.859375l1.671875 0l0 9.859375l-1.671875 0zm10.519836 0l0 -1.25q-0.9375 1.46875 -2.75 1.46875q-1.171875 0 -2.171875 -0.640625q-0.984375 -0.65625 -1.53125 -1.8125q-0.53125 -1.171875 -0.53125 -2.6875q0 -1.46875 0.484375 -2.671875q0.5 -1.203125 1.46875 -1.84375q0.984375 -0.640625 2.203125 -0.640625q0.890625 0 1.578125 0.375q0.703125 0.375 1.140625 0.984375l0 -4.875l1.65625 0l0 13.59375l-1.546875 0zm-5.28125 -4.921875q0 1.890625 0.796875 2.828125q0.8125 0.9375 1.890625 0.9375q1.09375 0 1.859375 -0.890625q0.765625 -0.890625 0.765625 -2.734375q0 -2.015625 -0.78125 -2.953125q-0.78125 -0.953125 -1.921875 -0.953125q-1.109375 0 -1.859375 0.90625q-0.75 0.90625 -0.75 2.859375zm8.016296 5.15625l3.9375 -14.0625l1.34375 0l-3.9375 14.0625l-1.34375 0zm6.6989746 -0.234375l0 -13.59375l1.8125 0l0 5.578125l7.0625 0l0 -5.578125l1.796875 0l0 13.59375l-1.796875 0l0 -6.40625l-7.0625 0l0 6.40625l-1.8125 0zm12.738525 -3.5625l1.765625 -0.15625q0.1875 1.28125 0.890625 1.9375q0.71875 0.640625 1.71875 0.640625q1.203125 0 2.03125 -0.90625q0.84375 -0.90625 0.84375 -2.421875q0 -1.421875 -0.8125 -2.25q-0.796875 -0.828125 -2.09375 -0.828125q-0.796875 0 -1.453125 0.375q-0.640625 0.359375 -1.015625 0.953125l-1.578125 -0.203125l1.328125 -7.0l6.765625 0l0 1.609375l-5.4375 0l-0.734375 3.640625q1.234375 -0.84375 2.578125 -0.84375q1.78125 0 3.0 1.234375q1.234375 1.234375 1.234375 3.171875q0 1.84375 -1.078125 3.1875q-1.3125 1.65625 -3.578125 1.65625q-1.859375 0 -3.03125 -1.03125q-1.171875 -1.046875 -1.34375 -2.765625zm9.594482 3.796875l3.9375 -14.0625l1.34375 0l-3.9375 14.0625l-1.34375 0zm16.948914 -1.6875q1.265625 0.859375 2.3125 1.265625l-0.53125 1.25q-1.453125 -0.53125 -2.921875 -1.671875q-1.5 0.84375 -3.328125 0.84375q-1.84375 0 -3.359375 -0.890625q-1.5 -0.890625 -2.3125 -2.5q-0.8125 -1.625 -0.8125 -3.640625q0 -2.015625 0.8125 -3.65625q0.828125 -1.65625 2.328125 -2.515625q1.515625 -0.875 3.375 -0.875q1.890625 0 3.390625 0.90625q1.515625 0.890625 2.3125 2.5q0.796875 1.609375 0.796875 3.625q0 1.6875 -0.515625 3.03125q-0.515625 1.328125 -1.546875 2.328125zm-3.953125 -2.296875q1.5625 0.421875 2.5625 1.296875q1.59375 -1.453125 1.59375 -4.359375q0 -1.65625 -0.5625 -2.875q-0.5625 -1.234375 -1.640625 -1.921875q-1.078125 -0.6875 -2.421875 -0.6875q-2.015625 0 -3.34375 1.390625q-1.328125 1.375 -1.328125 4.109375q0 2.65625 1.3125 4.078125q1.3125 1.40625 3.359375 1.40625q0.953125 0 1.8125 -0.359375q-0.84375 -0.546875 -1.78125 -0.78125l0.4375 -1.296875zm8.105225 3.75l0 -13.59375l2.71875 0l3.21875 9.625q0.4375 1.34375 0.640625 2.015625q0.234375 -0.75 0.734375 -2.1875l3.25 -9.453125l2.421875 0l0 13.59375l-1.734375 0l0 -11.390625l-3.953125 11.390625l-1.625 0l-3.9375 -11.578125l0 11.578125l-1.734375 0zm15.5251465 0l0 -13.59375l1.796875 0l0 11.984375l6.703125 0l0 1.609375l-8.5 0z" fill-rule="nonzero"></path><path fill="#000000" d="m827.15796 146.28253q-0.890625 1.859375 -2.75 3.9375l-0.8125 -0.8125q1.859375 -2.015625 2.59375 -3.640625q0.828125 -1.78125 0.828125 -3.796875q0 -2.375 -0.828125 -4.078125q-0.734375 -1.5625 -2.59375 -3.265625l0.8125 -0.734375q1.9375 1.78125 2.75 3.484375q0.96875 2.0 0.96875 4.59375q0 2.3125 -0.96875 4.3125z" fill-rule="nonzero"></path><path fill="#cfe2f3" d="m345.89764 26.496063l278.2047 0l0 69.25984l-278.2047 0z" fill-rule="nonzero"></path><path stroke="#000000" stroke-width="1.0" stroke-linejoin="round" stroke-linecap="butt" d="m345.89764 26.496063l278.2047 0l0 69.25984l-278.2047 0z" fill-rule="nonzero"></path><path fill="#000000" d="m447.30338 68.04598l5.234375 -13.59375l1.9375 0l5.5625 13.59375l-2.046875 0l-1.59375 -4.125l-5.6875 0l-1.484375 4.125l-1.921875 0zm3.921875 -5.578125l4.609375 0l-1.40625 -3.78125q-0.65625 -1.703125 -0.96875 -2.8125q-0.265625 1.3125 -0.734375 2.59375l-1.5 4.0zm10.021698 5.578125l0 -13.59375l5.125 0q1.359375 0 2.078125 0.125q1.0 0.171875 1.671875 0.640625q0.671875 0.46875 1.078125 1.3125q0.421875 0.84375 0.421875 1.84375q0 1.734375 -1.109375 2.9375q-1.09375 1.203125 -3.984375 1.203125l-3.484375 0l0 5.53125l-1.796875 0zm1.796875 -7.140625l3.515625 0q1.75 0 2.46875 -0.640625q0.734375 -0.65625 0.734375 -1.828125q0 -0.859375 -0.4375 -1.46875q-0.421875 -0.609375 -1.125 -0.796875q-0.453125 -0.125 -1.671875 -0.125l-3.484375 0l0 4.859375zm10.646698 7.140625l0 -13.59375l5.125 0q1.359375 0 2.078125 0.125q1.0 0.171875 1.671875 0.640625q0.671875 0.46875 1.078125 1.3125q0.421875 0.84375 0.421875 1.84375q0 1.734375 -1.109375 2.9375q-1.09375 1.203125 -3.984375 1.203125l-3.484375 0l0 5.53125l-1.796875 0zm1.796875 -7.140625l3.515625 0q1.75 0 2.46875 -0.640625q0.734375 -0.65625 0.734375 -1.828125q0 -0.859375 -0.4375 -1.46875q-0.421875 -0.609375 -1.125 -0.796875q-0.453125 -0.125 -1.671875 -0.125l-3.484375 0l0 4.859375z" fill-rule="nonzero"></path><path fill="#000000" d="m491.64972 57.577232l-1.78125 0l0 2.296875q0.890625 0.671875 1.921875 1.78125l-0.734375 1.640625q-0.59375 -0.96875 -1.1875 -1.640625l0 8.03125l-1.484375 0l0 -7.875q-0.59375 1.703125 -2.234375 3.859375l-0.671875 -1.5625q2.453125 -3.5625 2.90625 -6.53125l-2.53125 0l0 -1.40625l2.53125 0l0 -3.484375l1.40625 0q0.59375 0.0625 0.078125 0.4375l0 3.046875l1.78125 0l0 1.40625zm10.53125 -4.0l0 1.40625l-8.53125 0l0 12.390625l9.046875 0l0 1.421875l-9.046875 0l0 0.890625l-1.484375 0l0 -16.109375l10.015625 0zm-0.890625 2.734375l0 1.421875l-2.8125 0l0 2.4375l2.296875 0l0 1.421875l-2.296875 0l0 2.890625l3.40625 0l0 1.40625l-7.71875 0l0 -1.40625l2.828125 0l0 -2.890625l-2.15625 0l0 -1.421875l2.15625 0l0 -2.4375l-2.53125 0l0 -1.421875l6.828125 0zm9.28125 2.828125q0.671875 0 0.734375 -0.671875l0.15625 -2.453125l-1.859375 0q-0.078125 3.203125 -3.9375 5.125l-0.59375 -1.484375q2.90625 -1.109375 3.046875 -3.640625l-2.453125 0l0 -1.40625l2.53125 0l0 -1.859375l1.40625 0q0.59375 0.078125 0.078125 0.453125l0 1.40625l3.265625 0l-0.296875 4.234375q-0.15625 1.703125 -1.5625 1.703125l-1.265625 0l-0.21875 -1.40625l0.96875 0zm8.3125 1.265625l0 -0.375l-3.421875 0l0 0.515625l-1.484375 0l0 -6.671875l6.390625 0l0 6.53125l-1.484375 0zm-3.421875 -1.78125l3.421875 0l0 -3.34375l-3.421875 0l0 3.34375zm-1.78125 2.375q0.59375 0.0625 0.078125 0.4375l0 0.8125l6.828125 0l0 1.421875l-6.53125 0q1.9375 2.0 7.125 3.328125l-0.515625 1.71875q-4.234375 -1.265625 -6.90625 -3.71875l0 4.6875l-1.484375 0l0 -4.53125q-2.0 2.375 -6.609375 3.703125l-0.515625 -1.703125q4.609375 -1.046875 6.75 -3.484375l-6.453125 0l0 -1.421875l6.828125 0l0 -1.25l1.40625 0z" fill-rule="nonzero"></path><path fill="#cfe2f3" d="m42.97638 26.496063l278.2047 0l0 69.25984l-278.2047 0z" fill-rule="nonzero"></path><path stroke="#000000" stroke-width="1.0" stroke-linejoin="round" stroke-linecap="butt" d="m42.97638 26.496063l278.2047 0l0 69.25984l-278.2047 0z" fill-rule="nonzero"></path><path fill="#000000" d="m145.67458 68.04598l-3.609375 -13.59375l1.84375 0l2.0625 8.90625q0.34375 1.40625 0.578125 2.78125q0.515625 -2.171875 0.609375 -2.515625l2.59375 -9.171875l2.171875 0l1.953125 6.875q0.734375 2.5625 1.046875 4.8125q0.265625 -1.28125 0.6875 -2.953125l2.125 -8.734375l1.8125 0l-3.734375 13.59375l-1.734375 0l-2.859375 -10.359375q-0.359375 -1.296875 -0.421875 -1.59375q-0.21875 0.9375 -0.40625 1.59375l-2.890625 10.359375l-1.828125 0zm15.264908 0l0 -13.59375l9.84375 0l0 1.59375l-8.046875 0l0 4.171875l7.53125 0l0 1.59375l-7.53125 0l0 4.625l8.359375 0l0 1.609375l-10.15625 0zm12.334198 0l0 -13.59375l5.109375 0q1.546875 0 2.484375 0.40625q0.953125 0.40625 1.484375 1.265625q0.53125 0.859375 0.53125 1.796875q0 0.875 -0.46875 1.65625q-0.46875 0.765625 -1.4375 1.234375q1.234375 0.359375 1.890625 1.234375q0.671875 0.875 0.671875 2.0625q0 0.953125 -0.40625 1.78125q-0.390625 0.8125 -0.984375 1.265625q-0.59375 0.4375 -1.5 0.671875q-0.890625 0.21875 -2.1875 0.21875l-5.1875 0zm1.796875 -7.890625l2.9375 0q1.203125 0 1.71875 -0.15625q0.6875 -0.203125 1.03125 -0.671875q0.359375 -0.46875 0.359375 -1.1875q0 -0.671875 -0.328125 -1.1875q-0.328125 -0.515625 -0.9375 -0.703125q-0.59375 -0.203125 -2.0625 -0.203125l-2.71875 0l0 4.109375zm0 6.28125l3.390625 0q0.875 0 1.21875 -0.0625q0.625 -0.109375 1.046875 -0.359375q0.421875 -0.265625 0.6875 -0.765625q0.265625 -0.5 0.265625 -1.140625q0 -0.765625 -0.390625 -1.328125q-0.390625 -0.5625 -1.078125 -0.78125q-0.6875 -0.234375 -1.984375 -0.234375l-3.15625 0l0 4.671875z" fill-rule="nonzero"></path><path fill="#000000" d="m191.311 57.577232l-1.78125 0l0 2.296875q0.890625 0.671875 1.921875 1.78125l-0.734375 1.640625q-0.59375 -0.96875 -1.1875 -1.640625l0 8.03125l-1.484375 0l0 -7.875q-0.59375 1.703125 -2.234375 3.859375l-0.671875 -1.5625q2.453125 -3.5625 2.90625 -6.53125l-2.53125 0l0 -1.40625l2.53125 0l0 -3.484375l1.40625 0q0.59375 0.0625 0.078125 0.4375l0 3.046875l1.78125 0l0 1.40625zm10.53125 -4.0l0 1.40625l-8.53125 0l0 12.390625l9.046875 0l0 1.421875l-9.046875 0l0 0.890625l-1.484375 0l0 -16.109375l10.015625 0zm-0.890625 2.734375l0 1.421875l-2.8125 0l0 2.4375l2.296875 0l0 1.421875l-2.296875 0l0 2.890625l3.40625 0l0 1.40625l-7.71875 0l0 -1.40625l2.828125 0l0 -2.890625l-2.15625 0l0 -1.421875l2.15625 0l0 -2.4375l-2.53125 0l0 -1.421875l6.828125 0zm9.28125 2.828125q0.671875 0 0.734375 -0.671875l0.15625 -2.453125l-1.859375 0q-0.078125 3.203125 -3.9375 5.125l-0.59375 -1.484375q2.90625 -1.109375 3.046875 -3.640625l-2.453125 0l0 -1.40625l2.53125 0l0 -1.859375l1.40625 0q0.59375 0.078125 0.078125 0.453125l0 1.40625l3.265625 0l-0.296875 4.234375q-0.15625 1.703125 -1.5625 1.703125l-1.265625 0l-0.21875 -1.40625l0.96875 0zm8.3125 1.265625l0 -0.375l-3.421875 0l0 0.515625l-1.484375 0l0 -6.671875l6.390625 0l0 6.53125l-1.484375 0zm-3.421875 -1.78125l3.421875 0l0 -3.34375l-3.421875 0l0 3.34375zm-1.78125 2.375q0.59375 0.0625 0.078125 0.4375l0 0.8125l6.828125 0l0 1.421875l-6.53125 0q1.9375 2.0 7.125 3.328125l-0.515625 1.71875q-4.234375 -1.265625 -6.90625 -3.71875l0 4.6875l-1.484375 0l0 -4.53125q-2.0 2.375 -6.609375 3.703125l-0.515625 -1.703125q4.609375 -1.046875 6.75 -3.484375l-6.453125 0l0 -1.421875l6.828125 0l0 -1.25l1.40625 0z" fill-rule="nonzero"></path><path fill="#d9d9d9" d="m648.8189 26.496063l278.2047 0l0 69.25984l-278.2047 0z" fill-rule="nonzero"></path><path stroke="#000000" stroke-width="1.0" stroke-linejoin="round" stroke-linecap="butt" d="m648.8189 26.496063l278.2047 0l0 69.25984l-278.2047 0z" fill-rule="nonzero"></path><path fill="#000000" d="m757.43176 68.04598l0 -13.59375l5.125 0q1.359375 0 2.078125 0.125q1.0 0.171875 1.671875 0.640625q0.671875 0.46875 1.078125 1.3125q0.421875 0.84375 0.421875 1.84375q0 1.734375 -1.109375 2.9375q-1.09375 1.203125 -3.984375 1.203125l-3.484375 0l0 5.53125l-1.796875 0zm1.796875 -7.140625l3.515625 0q1.75 0 2.46875 -0.640625q0.734375 -0.65625 0.734375 -1.828125q0 -0.859375 -0.4375 -1.46875q-0.421875 -0.609375 -1.125 -0.796875q-0.453125 -0.125 -1.671875 -0.125l-3.484375 0l0 4.859375zm20.349792 2.375l1.796875 0.453125q-0.5625 2.21875 -2.03125 3.390625q-1.46875 1.15625 -3.59375 1.15625q-2.203125 0 -3.578125 -0.890625q-1.375 -0.90625 -2.09375 -2.59375q-0.71875 -1.703125 -0.71875 -3.65625q0 -2.125 0.796875 -3.703125q0.8125 -1.578125 2.3125 -2.390625q1.5 -0.828125 3.296875 -0.828125q2.046875 0 3.4375 1.046875q1.390625 1.03125 1.9375 2.90625l-1.765625 0.421875q-0.46875 -1.484375 -1.375 -2.15625q-0.90625 -0.6875 -2.265625 -0.6875q-1.5625 0 -2.625 0.75q-1.046875 0.75 -1.484375 2.03125q-0.421875 1.265625 -0.421875 2.609375q0 1.734375 0.5 3.03125q0.515625 1.28125 1.578125 1.921875q1.078125 0.640625 2.3125 0.640625q1.515625 0 2.5625 -0.859375q1.046875 -0.875 1.421875 -2.59375z" fill-rule="nonzero"></path><path fill="#000000" d="m788.8639 57.577232l-1.78125 0l0 2.296875q0.890625 0.671875 1.921875 1.78125l-0.734375 1.640625q-0.59375 -0.96875 -1.1875 -1.640625l0 8.03125l-1.484375 0l0 -7.875q-0.59375 1.703125 -2.234375 3.859375l-0.671875 -1.5625q2.453125 -3.5625 2.90625 -6.53125l-2.53125 0l0 -1.40625l2.53125 0l0 -3.484375l1.40625 0q0.59375 0.0625 0.078125 0.4375l0 3.046875l1.78125 0l0 1.40625zm10.53125 -4.0l0 1.40625l-8.53125 0l0 12.390625l9.046875 0l0 1.421875l-9.046875 0l0 0.890625l-1.484375 0l0 -16.109375l10.015625 0zm-0.890625 2.734375l0 1.421875l-2.8125 0l0 2.4375l2.296875 0l0 1.421875l-2.296875 0l0 2.890625l3.40625 0l0 1.40625l-7.71875 0l0 -1.40625l2.828125 0l0 -2.890625l-2.15625 0l0 -1.421875l2.15625 0l0 -2.4375l-2.53125 0l0 -1.421875l6.828125 0zm9.28125 2.828125q0.671875 0 0.734375 -0.671875l0.15625 -2.453125l-1.859375 0q-0.078125 3.203125 -3.9375 5.125l-0.59375 -1.484375q2.90625 -1.109375 3.046875 -3.640625l-2.453125 0l0 -1.40625l2.53125 0l0 -1.859375l1.40625 0q0.59375 0.078125 0.078125 0.453125l0 1.40625l3.265625 0l-0.296875 4.234375q-0.15625 1.703125 -1.5625 1.703125l-1.265625 0l-0.21875 -1.40625l0.96875 0zm8.3125 1.265625l0 -0.375l-3.421875 0l0 0.515625l-1.484375 0l0 -6.671875l6.390625 0l0 6.53125l-1.484375 0zm-3.421875 -1.78125l3.421875 0l0 -3.34375l-3.421875 0l0 3.34375zm-1.78125 2.375q0.59375 0.0625 0.078125 0.4375l0 0.8125l6.828125 0l0 1.421875l-6.53125 0q1.9375 2.0 7.125 3.328125l-0.515625 1.71875q-4.234375 -1.265625 -6.90625 -3.71875l0 4.6875l-1.484375 0l0 -4.53125q-2.0 2.375 -6.609375 3.703125l-0.515625 -1.703125q4.609375 -1.046875 6.75 -3.484375l-6.453125 0l0 -1.421875l6.828125 0l0 -1.25l1.40625 0z" fill-rule="nonzero"></path></g></svg>

